<mxfile host="app.diagrams.net" agent="Mozilla/5.0 (Windows NT 10.0; Win64; x64) AppleWebKit/537.36 (KHTML, like Gecko) Chrome/141.0.0.0 Safari/537.36" version="28.2.5">
  <diagram name="Page-1" id="Page-1">
    <mxGraphModel dx="1603" dy="969" grid="1" gridSize="10" guides="1" tooltips="1" connect="1" arrows="1" fold="1" page="1" pageScale="1" pageWidth="850" pageHeight="1100" math="0" shadow="0">
      <root>
        <mxCell id="0" />
        <mxCell id="1" parent="0" />
        <UserObject label="" tags="Background" id="2">
          <mxCell style="vsdxID=110000;fillColor=none;gradientColor=none;strokeColor=none;spacingTop=-3;spacingBottom=-3;spacingLeft=-3;spacingRight=-3;points=[];labelBackgroundColor=none;rounded=0;html=1;whiteSpace=wrap;verticalAlign=top;" parent="1" vertex="1">
            <mxGeometry x="1150" y="1550" width="180" height="210" as="geometry" />
          </mxCell>
        </UserObject>
        <mxCell id="3" value="&lt;div style=&quot;&quot;&gt;&lt;font style=&quot;font-family: Helvetica; direction: ltr; letter-spacing: 0px; line-height: 120%; opacity: 1; font-size: 20px; color: rgb(255, 255, 255);&quot;&gt;&lt;b style=&quot;&quot;&gt;User&lt;/b&gt;&lt;/font&gt;&lt;/div&gt;" style="verticalAlign=top;align=center;overflow=width;vsdxID=1;fillColor=#e51400;shape=stencil(tZPdDsIgDIWfhlsChY15PfU9low54hwLm39vL0jUyLLEarxry/ma09ASUY5tNWgCbJyc3euzqaeWiDUBMH2rnZl8RMSGiLKxTu+cPfZ1zIcqKEN0sKfQ4RI5Fghg15hxSWF1r2yjuDP9opgtCzn7Wjqz4IOX+cZ0XZz9+f6HyR6ePjOMEqc2fvCM7M1zmitU/xkABc0UBpBAixwDZIpyiQEUp1JggCKjimOA5H/f1jFZRR+kd+dL8WbF5gY=);strokeColor=#B20000;spacingTop=-3;spacingBottom=-3;spacingLeft=-3;spacingRight=-3;points=[];labelBackgroundColor=none;rounded=0;html=1;whiteSpace=wrap;fontColor=#ffffff;" parent="2" vertex="1">
          <mxGeometry width="180" height="210" as="geometry" />
        </mxCell>
        <mxCell id="4" style="vsdxID=210000;fillColor=none;gradientColor=none;strokeColor=none;spacingTop=-3;spacingBottom=-3;spacingLeft=-3;spacingRight=-3;points=[];labelBackgroundColor=none;rounded=0;html=1;whiteSpace=wrap;" parent="2" vertex="1">
          <mxGeometry y="30" width="180" height="30" as="geometry" />
        </mxCell>
        <mxCell id="5" style="vsdxID=2;fillColor=none;gradientColor=none;shape=stencil(UzV2Ls5ILEhVNTIoLinKz04tz0wpyVA1dlE1MsrMy0gtyiwBslSNXVWNndPyi1LTi/JL81Ig/IJEkEoQKze/DGRCBUSfAUiHkUElMs8NojAnMw9JoaEB2UphfKyKyVaKohDIQPgwLTMnBy5DhsdRFeL1OIa9kIghaDv1ggjFBWi2Axno6QAoBElDxq4A);strokeColor=#000000;spacingTop=-3;spacingBottom=-3;spacingLeft=-3;spacingRight=-3;points=[];labelBackgroundColor=none;rounded=0;html=1;whiteSpace=wrap;" parent="4" vertex="1">
          <mxGeometry width="180" height="30" as="geometry" />
        </mxCell>
        <mxCell id="6" value="&lt;div style=&quot;font-size: 1px&quot;&gt;&lt;font style=&quot;font-size:11.64px;font-family:Helvetica;color:#000000;direction:ltr;letter-spacing:0px;line-height:120%;opacity:1&quot;&gt;&lt;b&gt;PK&lt;/b&gt;&lt;/font&gt;&lt;/div&gt;" style="verticalAlign=middle;align=center;overflow=width;vsdxID=3;fillColor=none;gradientColor=none;shape=stencil(nZJZDsMgDERP43+Kj5Cm94gUUqxSiAjpcvuCrGahFVL4m8HPlkcYsJl0NyqQYgre3dST+qABzyAlWa08hagAW8BmcF5dvZttz37sEpnU3T3ShBf3idQhxXvrLgwashvwJKrRr/8LV6M7MIo14UDGLJWK4HuwGLyMZml+luRfPLhqaWg2MIr8DuIT3xC2Hw==);strokeColor=#000000;spacingTop=-3;spacingBottom=-3;spacingLeft=-3;spacingRight=-3;points=[];labelBackgroundColor=none;rounded=0;html=1;whiteSpace=wrap;" parent="4" vertex="1">
          <mxGeometry width="30" height="30" as="geometry" />
        </mxCell>
        <mxCell id="7" value="&lt;div style=&quot;font-size: 1px&quot;&gt;&lt;font style=&quot;font-size:11.64px;font-family:Helvetica;color:#000000;direction:ltr;letter-spacing:0px;line-height:120%;opacity:1&quot;&gt;&lt;u&gt;&lt;b&gt;UserID&lt;/b&gt;&lt;/u&gt;&lt;/font&gt;&lt;/div&gt;" style="verticalAlign=middle;align=left;overflow=width;vsdxID=4;fillColor=none;gradientColor=none;shape=stencil(nZJZDsMgDERP43+Kj5Cm94gUUqxSiAjpcvuCrGahFVL4m8HPlkcYsJl0NyqQYgre3dST+qABzyAlWa08hagAW8BmcF5dvZttz37sEpnU3T3ShBf3idQhxXvrLgwashvwJKrRr/8LV6M7MIo14UDGLJWK4HuwGLyMZml+luRfPLhqaWg2MIr8DuIT3xC2Hw==);strokeColor=#000000;spacingTop=-3;spacingBottom=-3;spacingLeft=-3;spacingRight=-3;points=[];labelBackgroundColor=none;rounded=0;html=1;whiteSpace=wrap;" parent="4" vertex="1">
          <mxGeometry x="30" width="150" height="30" as="geometry" />
        </mxCell>
        <mxCell id="8" style="vsdxID=510000;fillColor=none;gradientColor=none;strokeColor=none;spacingTop=-3;spacingBottom=-3;spacingLeft=-3;spacingRight=-3;points=[];labelBackgroundColor=none;rounded=0;html=1;whiteSpace=wrap;" parent="2" vertex="1">
          <mxGeometry y="60" width="180" height="30" as="geometry" />
        </mxCell>
        <mxCell id="9" style="vsdxID=6;fillColor=none;gradientColor=none;shape=stencil(nZJZDsMgDERP43+Kj5Cm94gUUqxSiAjpcvuCrGahFVL4m8HPlkcYsJl0NyqQYgre3dST+qABzyAlWa08hagAW8BmcF5dvZttz37sEpnU3T3ShBf3idQhxXvrLgwashvwJKrRr/8LV6M7MIo14UDGLJWK4HuwGLyMZml+luRfPLhqaWg2MIr8DuIT3xC2Hw==);strokeColor=#000000;spacingTop=-3;spacingBottom=-3;spacingLeft=-3;spacingRight=-3;points=[];labelBackgroundColor=none;rounded=0;html=1;whiteSpace=wrap;" parent="8" vertex="1">
          <mxGeometry width="30" height="30" as="geometry" />
        </mxCell>
        <mxCell id="10" value="&lt;div style=&quot;font-size: 1px&quot;&gt;&lt;font style=&quot;font-size:11.64px;font-family:Helvetica;color:#000000;direction:ltr;letter-spacing:0px;line-height:120%;opacity:1&quot;&gt;Username&lt;/font&gt;&lt;/div&gt;" style="verticalAlign=middle;align=left;overflow=width;vsdxID=7;fillColor=none;gradientColor=none;shape=stencil(nZJZDsMgDERP43+Kj5Cm94gUUqxSiAjpcvuCrGahFVL4m8HPlkcYsJl0NyqQYgre3dST+qABzyAlWa08hagAW8BmcF5dvZttz37sEpnU3T3ShBf3idQhxXvrLgwashvwJKrRr/8LV6M7MIo14UDGLJWK4HuwGLyMZml+luRfPLhqaWg2MIr8DuIT3xC2Hw==);strokeColor=#000000;spacingTop=-3;spacingBottom=-3;spacingLeft=-3;spacingRight=-3;points=[];labelBackgroundColor=none;rounded=0;html=1;whiteSpace=wrap;" parent="8" vertex="1">
          <mxGeometry x="30" width="150" height="30" as="geometry" />
        </mxCell>
        <mxCell id="11" style="vsdxID=810000;fillColor=none;gradientColor=none;strokeColor=none;spacingTop=-3;spacingBottom=-3;spacingLeft=-3;spacingRight=-3;points=[];labelBackgroundColor=none;rounded=0;html=1;whiteSpace=wrap;" parent="2" vertex="1">
          <mxGeometry y="90" width="180" height="30" as="geometry" />
        </mxCell>
        <mxCell id="12" style="vsdxID=9;fillColor=none;gradientColor=none;shape=stencil(nZJZDsMgDERP43+Kj5Cm94gUUqxSiAjpcvuCrGahFVL4m8HPlkcYsJl0NyqQYgre3dST+qABzyAlWa08hagAW8BmcF5dvZttz37sEpnU3T3ShBf3idQhxXvrLgwashvwJKrRr/8LV6M7MIo14UDGLJWK4HuwGLyMZml+luRfPLhqaWg2MIr8DuIT3xC2Hw==);strokeColor=#000000;spacingTop=-3;spacingBottom=-3;spacingLeft=-3;spacingRight=-3;points=[];labelBackgroundColor=none;rounded=0;html=1;whiteSpace=wrap;" parent="11" vertex="1">
          <mxGeometry width="30" height="30" as="geometry" />
        </mxCell>
        <mxCell id="13" value="&lt;div style=&quot;font-size: 1px&quot;&gt;&lt;font style=&quot;font-size:11.64px;font-family:Helvetica;color:#000000;direction:ltr;letter-spacing:0px;line-height:120%;opacity:1&quot;&gt;Email&lt;/font&gt;&lt;/div&gt;" style="verticalAlign=middle;align=left;overflow=width;vsdxID=10;fillColor=none;gradientColor=none;shape=stencil(nZJZDsMgDERP43+Kj5Cm94gUUqxSiAjpcvuCrGahFVL4m8HPlkcYsJl0NyqQYgre3dST+qABzyAlWa08hagAW8BmcF5dvZttz37sEpnU3T3ShBf3idQhxXvrLgwashvwJKrRr/8LV6M7MIo14UDGLJWK4HuwGLyMZml+luRfPLhqaWg2MIr8DuIT3xC2Hw==);strokeColor=#000000;spacingTop=-3;spacingBottom=-3;spacingLeft=-3;spacingRight=-3;points=[];labelBackgroundColor=none;rounded=0;html=1;whiteSpace=wrap;" parent="11" vertex="1">
          <mxGeometry x="30" width="150" height="30" as="geometry" />
        </mxCell>
        <mxCell id="14" style="vsdxID=1110000;fillColor=none;gradientColor=none;strokeColor=none;spacingTop=-3;spacingBottom=-3;spacingLeft=-3;spacingRight=-3;points=[];labelBackgroundColor=none;rounded=0;html=1;whiteSpace=wrap;" parent="2" vertex="1">
          <mxGeometry y="120" width="180" height="30" as="geometry" />
        </mxCell>
        <mxCell id="15" style="vsdxID=12;fillColor=none;gradientColor=none;shape=stencil(nZJZDsMgDERP43+Kj5Cm94gUUqxSiAjpcvuCrGahFVL4m8HPlkcYsJl0NyqQYgre3dST+qABzyAlWa08hagAW8BmcF5dvZttz37sEpnU3T3ShBf3idQhxXvrLgwashvwJKrRr/8LV6M7MIo14UDGLJWK4HuwGLyMZml+luRfPLhqaWg2MIr8DuIT3xC2Hw==);strokeColor=#000000;spacingTop=-3;spacingBottom=-3;spacingLeft=-3;spacingRight=-3;points=[];labelBackgroundColor=none;rounded=0;html=1;whiteSpace=wrap;" parent="14" vertex="1">
          <mxGeometry width="30" height="30" as="geometry" />
        </mxCell>
        <mxCell id="16" value="&lt;div style=&quot;font-size: 1px&quot;&gt;&lt;font style=&quot;font-size:11.64px;font-family:Helvetica;color:#000000;direction:ltr;letter-spacing:0px;line-height:120%;opacity:1&quot;&gt;Password&lt;/font&gt;&lt;/div&gt;" style="verticalAlign=middle;align=left;overflow=width;vsdxID=13;fillColor=none;gradientColor=none;shape=stencil(nZJZDsMgDERP43+Kj5Cm94gUUqxSiAjpcvuCrGahFVL4m8HPlkcYsJl0NyqQYgre3dST+qABzyAlWa08hagAW8BmcF5dvZttz37sEpnU3T3ShBf3idQhxXvrLgwashvwJKrRr/8LV6M7MIo14UDGLJWK4HuwGLyMZml+luRfPLhqaWg2MIr8DuIT3xC2Hw==);strokeColor=#000000;spacingTop=-3;spacingBottom=-3;spacingLeft=-3;spacingRight=-3;points=[];labelBackgroundColor=none;rounded=0;html=1;whiteSpace=wrap;" parent="14" vertex="1">
          <mxGeometry x="30" width="150" height="30" as="geometry" />
        </mxCell>
        <mxCell id="17" style="vsdxID=1410000;fillColor=none;gradientColor=none;strokeColor=none;spacingTop=-3;spacingBottom=-3;spacingLeft=-3;spacingRight=-3;points=[];labelBackgroundColor=none;rounded=0;html=1;whiteSpace=wrap;" parent="2" vertex="1">
          <mxGeometry y="150" width="180" height="30" as="geometry" />
        </mxCell>
        <mxCell id="18" style="vsdxID=15;fillColor=none;gradientColor=none;shape=stencil(nZJZDsMgDERP43+Kj5Cm94gUUqxSiAjpcvuCrGahFVL4m8HPlkcYsJl0NyqQYgre3dST+qABzyAlWa08hagAW8BmcF5dvZttz37sEpnU3T3ShBf3idQhxXvrLgwashvwJKrRr/8LV6M7MIo14UDGLJWK4HuwGLyMZml+luRfPLhqaWg2MIr8DuIT3xC2Hw==);strokeColor=#000000;spacingTop=-3;spacingBottom=-3;spacingLeft=-3;spacingRight=-3;points=[];labelBackgroundColor=none;rounded=0;html=1;whiteSpace=wrap;" parent="17" vertex="1">
          <mxGeometry width="30" height="30" as="geometry" />
        </mxCell>
        <mxCell id="19" value="&lt;div style=&quot;font-size: 1px&quot;&gt;&lt;font style=&quot;font-size:11.64px;font-family:Helvetica;color:#000000;direction:ltr;letter-spacing:0px;line-height:120%;opacity:1&quot;&gt;JoinDate&lt;/font&gt;&lt;/div&gt;" style="verticalAlign=middle;align=left;overflow=width;vsdxID=16;fillColor=none;gradientColor=none;shape=stencil(nZJZDsMgDERP43+Kj5Cm94gUUqxSiAjpcvuCrGahFVL4m8HPlkcYsJl0NyqQYgre3dST+qABzyAlWa08hagAW8BmcF5dvZttz37sEpnU3T3ShBf3idQhxXvrLgwashvwJKrRr/8LV6M7MIo14UDGLJWK4HuwGLyMZml+luRfPLhqaWg2MIr8DuIT3xC2Hw==);strokeColor=#000000;spacingTop=-3;spacingBottom=-3;spacingLeft=-3;spacingRight=-3;points=[];labelBackgroundColor=none;rounded=0;html=1;whiteSpace=wrap;" parent="17" vertex="1">
          <mxGeometry x="30" width="150" height="30" as="geometry" />
        </mxCell>
        <mxCell id="20" style="vsdxID=1710000;fillColor=none;gradientColor=none;strokeColor=none;spacingTop=-3;spacingBottom=-3;spacingLeft=-3;spacingRight=-3;points=[];labelBackgroundColor=none;rounded=0;html=1;whiteSpace=wrap;" parent="2" vertex="1">
          <mxGeometry y="180" width="180" height="30" as="geometry" />
        </mxCell>
        <mxCell id="21" value="&lt;div style=&quot;font-size: 1px&quot;&gt;&lt;font style=&quot;font-size:11.64px;font-family:Helvetica;color:#000000;direction:ltr;letter-spacing:0px;line-height:120%;opacity:1&quot;&gt;FK&lt;/font&gt;&lt;/div&gt;" style="verticalAlign=middle;align=center;overflow=width;vsdxID=18;fillColor=none;gradientColor=none;shape=stencil(nZJZDsMgDERP43+Kj5Cm94gUUqxSiAjpcvuCrGahFVL4m8HPlkcYsJl0NyqQYgre3dST+qABzyAlWa08hagAW8BmcF5dvZttz37sEpnU3T3ShBf3idQhxXvrLgwashvwJKrRr/8LV6M7MIo14UDGLJWK4HuwGLyMZml+luRfPLhqaWg2MIr8DuIT3xC2Hw==);strokeColor=#000000;spacingTop=-3;spacingBottom=-3;spacingLeft=-3;spacingRight=-3;points=[];labelBackgroundColor=none;rounded=0;html=1;whiteSpace=wrap;" parent="20" vertex="1">
          <mxGeometry width="30" height="30" as="geometry" />
        </mxCell>
        <mxCell id="22" value="&lt;div style=&quot;font-size: 1px&quot;&gt;&lt;font style=&quot;font-size:11.64px;font-family:Helvetica;color:#000000;direction:ltr;letter-spacing:0px;line-height:120%;opacity:1&quot;&gt;SubscriptionID&lt;/font&gt;&lt;/div&gt;" style="verticalAlign=middle;align=left;overflow=width;vsdxID=19;fillColor=none;gradientColor=none;shape=stencil(nZJZDsMgDERP43+Kj5Cm94gUUqxSiAjpcvuCrGahFVL4m8HPlkcYsJl0NyqQYgre3dST+qABzyAlWa08hagAW8BmcF5dvZttz37sEpnU3T3ShBf3idQhxXvrLgwashvwJKrRr/8LV6M7MIo14UDGLJWK4HuwGLyMZml+luRfPLhqaWg2MIr8DuIT3xC2Hw==);strokeColor=#000000;spacingTop=-3;spacingBottom=-3;spacingLeft=-3;spacingRight=-3;points=[];labelBackgroundColor=none;rounded=0;html=1;whiteSpace=wrap;" parent="20" vertex="1">
          <mxGeometry x="30" width="150" height="30" as="geometry" />
        </mxCell>
        <UserObject label="" tags="Background" id="23">
          <mxCell style="vsdxID=2010000;fillColor=none;gradientColor=none;strokeColor=none;spacingTop=-3;spacingBottom=-3;spacingLeft=-3;spacingRight=-3;points=[];labelBackgroundColor=none;rounded=0;html=1;whiteSpace=wrap;verticalAlign=top;" parent="1" vertex="1">
            <mxGeometry x="780" y="1710" width="180" height="180" as="geometry" />
          </mxCell>
        </UserObject>
        <mxCell id="24" value="&lt;div style=&quot;&quot;&gt;&lt;font style=&quot;font-family: Helvetica; direction: ltr; letter-spacing: 0px; line-height: 120%; opacity: 1; font-size: 20px; color: rgb(255, 255, 255);&quot;&gt;&lt;b style=&quot;&quot;&gt;Comment&lt;/b&gt;&lt;/font&gt;&lt;/div&gt;" style="verticalAlign=top;align=center;overflow=width;vsdxID=20;fillColor=#e51400;shape=stencil(tVPbDsIgDP2avi6MRvR9zv9YMiZEhIXN298LEl2EzAyNb6ftOc0ptIDVIJqeAyXDaM2BX2Q7CsAtUCq14FaODgHWgFVnLN9bc9JtiPvGMz06mrPvcA064hWU3EJUsoKtH5ldICupZ8lknliSr6mJBQcm851UKsz+qv9hsqenZYazyLGNHzxn9p7KS/snAsQCMUew+vQ0CZvl+tnk+on+6m21orVyIL4hlwr3h/Ud);strokeColor=#B20000;spacingTop=-3;spacingBottom=-3;spacingLeft=-3;spacingRight=-3;points=[];labelBackgroundColor=none;rounded=0;html=1;whiteSpace=wrap;fontColor=#ffffff;" parent="23" vertex="1">
          <mxGeometry width="180" height="180" as="geometry" />
        </mxCell>
        <mxCell id="25" style="vsdxID=2110000;fillColor=none;gradientColor=none;strokeColor=none;spacingTop=-3;spacingBottom=-3;spacingLeft=-3;spacingRight=-3;points=[];labelBackgroundColor=none;rounded=0;html=1;whiteSpace=wrap;" parent="23" vertex="1">
          <mxGeometry y="30" width="180" height="30" as="geometry" />
        </mxCell>
        <mxCell id="26" style="vsdxID=21;fillColor=none;gradientColor=none;shape=stencil(UzV2Ls5ILEhVNTIoLinKz04tz0wpyVA1dlE1MsrMy0gtyiwBslSNXVWNndPyi1LTi/JL81Ig/IJEkEoQKze/DGRCBUSfAUiHkUElMs8NojAnMw9JoaEB2UphfKyKyVaKohDIQPgwLTMnBy5DhsdRFeL1OIa9kIghaDv1ggjFBWi2Axno6QAoBElDxq4A);strokeColor=#000000;spacingTop=-3;spacingBottom=-3;spacingLeft=-3;spacingRight=-3;points=[];labelBackgroundColor=none;rounded=0;html=1;whiteSpace=wrap;" parent="25" vertex="1">
          <mxGeometry width="180" height="30" as="geometry" />
        </mxCell>
        <mxCell id="27" value="&lt;div style=&quot;font-size: 1px&quot;&gt;&lt;font style=&quot;font-size:11.64px;font-family:Helvetica;color:#000000;direction:ltr;letter-spacing:0px;line-height:120%;opacity:1&quot;&gt;&lt;b&gt;PK&lt;/b&gt;&lt;/font&gt;&lt;/div&gt;" style="verticalAlign=middle;align=center;overflow=width;vsdxID=22;fillColor=none;gradientColor=none;shape=stencil(nZJZDsMgDERP43+Kj5Cm94gUUqxSiAjpcvuCrGahFVL4m8HPlkcYsJl0NyqQYgre3dST+qABzyAlWa08hagAW8BmcF5dvZttz37sEpnU3T3ShBf3idQhxXvrLgwashvwJKrRr/8LV6M7MIo14UDGLJWK4HuwGLyMZml+luRfPLhqaWg2MIr8DuIT3xC2Hw==);strokeColor=#000000;spacingTop=-3;spacingBottom=-3;spacingLeft=-3;spacingRight=-3;points=[];labelBackgroundColor=none;rounded=0;html=1;whiteSpace=wrap;" parent="25" vertex="1">
          <mxGeometry width="30" height="30" as="geometry" />
        </mxCell>
        <mxCell id="28" value="&lt;div style=&quot;font-size: 1px&quot;&gt;&lt;font style=&quot;font-size:11.64px;font-family:Helvetica;color:#000000;direction:ltr;letter-spacing:0px;line-height:120%;opacity:1&quot;&gt;&lt;u&gt;&lt;b&gt;CommentID&lt;/b&gt;&lt;/u&gt;&lt;/font&gt;&lt;/div&gt;" style="verticalAlign=middle;align=left;overflow=width;vsdxID=23;fillColor=none;gradientColor=none;shape=stencil(nZJZDsMgDERP43+Kj5Cm94gUUqxSiAjpcvuCrGahFVL4m8HPlkcYsJl0NyqQYgre3dST+qABzyAlWa08hagAW8BmcF5dvZttz37sEpnU3T3ShBf3idQhxXvrLgwashvwJKrRr/8LV6M7MIo14UDGLJWK4HuwGLyMZml+luRfPLhqaWg2MIr8DuIT3xC2Hw==);strokeColor=#000000;spacingTop=-3;spacingBottom=-3;spacingLeft=-3;spacingRight=-3;points=[];labelBackgroundColor=none;rounded=0;html=1;whiteSpace=wrap;" parent="25" vertex="1">
          <mxGeometry x="30" width="150" height="30" as="geometry" />
        </mxCell>
        <mxCell id="29" style="vsdxID=2410000;fillColor=none;gradientColor=none;strokeColor=none;spacingTop=-3;spacingBottom=-3;spacingLeft=-3;spacingRight=-3;points=[];labelBackgroundColor=none;rounded=0;html=1;whiteSpace=wrap;" parent="23" vertex="1">
          <mxGeometry y="60" width="180" height="30" as="geometry" />
        </mxCell>
        <mxCell id="30" value="&lt;div style=&quot;font-size: 1px&quot;&gt;&lt;font style=&quot;font-size:11.64px;font-family:Helvetica;color:#000000;direction:ltr;letter-spacing:0px;line-height:120%;opacity:1&quot;&gt;FK&lt;/font&gt;&lt;/div&gt;" style="verticalAlign=middle;align=center;overflow=width;vsdxID=25;fillColor=none;gradientColor=none;shape=stencil(nZJZDsMgDERP43+Kj5Cm94gUUqxSiAjpcvuCrGahFVL4m8HPlkcYsJl0NyqQYgre3dST+qABzyAlWa08hagAW8BmcF5dvZttz37sEpnU3T3ShBf3idQhxXvrLgwashvwJKrRr/8LV6M7MIo14UDGLJWK4HuwGLyMZml+luRfPLhqaWg2MIr8DuIT3xC2Hw==);strokeColor=#000000;spacingTop=-3;spacingBottom=-3;spacingLeft=-3;spacingRight=-3;points=[];labelBackgroundColor=none;rounded=0;html=1;whiteSpace=wrap;" parent="29" vertex="1">
          <mxGeometry width="30" height="30" as="geometry" />
        </mxCell>
        <mxCell id="31" value="&lt;div style=&quot;font-size: 1px&quot;&gt;&lt;font style=&quot;font-size:11.64px;font-family:Helvetica;color:#000000;direction:ltr;letter-spacing:0px;line-height:120%;opacity:1&quot;&gt;ProfileID&lt;/font&gt;&lt;/div&gt;" style="verticalAlign=middle;align=left;overflow=width;vsdxID=26;fillColor=none;gradientColor=none;shape=stencil(nZJZDsMgDERP43+Kj5Cm94gUUqxSiAjpcvuCrGahFVL4m8HPlkcYsJl0NyqQYgre3dST+qABzyAlWa08hagAW8BmcF5dvZttz37sEpnU3T3ShBf3idQhxXvrLgwashvwJKrRr/8LV6M7MIo14UDGLJWK4HuwGLyMZml+luRfPLhqaWg2MIr8DuIT3xC2Hw==);strokeColor=#000000;spacingTop=-3;spacingBottom=-3;spacingLeft=-3;spacingRight=-3;points=[];labelBackgroundColor=none;rounded=0;html=1;whiteSpace=wrap;" parent="29" vertex="1">
          <mxGeometry x="30" width="150" height="30" as="geometry" />
        </mxCell>
        <mxCell id="32" style="vsdxID=2710000;fillColor=none;gradientColor=none;strokeColor=none;spacingTop=-3;spacingBottom=-3;spacingLeft=-3;spacingRight=-3;points=[];labelBackgroundColor=none;rounded=0;html=1;whiteSpace=wrap;" parent="23" vertex="1">
          <mxGeometry y="90" width="180" height="30" as="geometry" />
        </mxCell>
        <mxCell id="33" style="vsdxID=28;fillColor=none;gradientColor=none;shape=stencil(nZJZDsMgDERP43+Kj5Cm94gUUqxSiAjpcvuCrGahFVL4m8HPlkcYsJl0NyqQYgre3dST+qABzyAlWa08hagAW8BmcF5dvZttz37sEpnU3T3ShBf3idQhxXvrLgwashvwJKrRr/8LV6M7MIo14UDGLJWK4HuwGLyMZml+luRfPLhqaWg2MIr8DuIT3xC2Hw==);strokeColor=#000000;spacingTop=-3;spacingBottom=-3;spacingLeft=-3;spacingRight=-3;points=[];labelBackgroundColor=none;rounded=0;html=1;whiteSpace=wrap;" parent="32" vertex="1">
          <mxGeometry width="30" height="30" as="geometry" />
        </mxCell>
        <mxCell id="34" value="&lt;div style=&quot;font-size: 1px&quot;&gt;&lt;font style=&quot;font-size:11.64px;font-family:Helvetica;color:#000000;direction:ltr;letter-spacing:0px;line-height:120%;opacity:1&quot;&gt;CommentMessage&lt;/font&gt;&lt;/div&gt;" style="verticalAlign=middle;align=left;overflow=width;vsdxID=29;fillColor=none;gradientColor=none;shape=stencil(nZJZDsMgDERP43+Kj5Cm94gUUqxSiAjpcvuCrGahFVL4m8HPlkcYsJl0NyqQYgre3dST+qABzyAlWa08hagAW8BmcF5dvZttz37sEpnU3T3ShBf3idQhxXvrLgwashvwJKrRr/8LV6M7MIo14UDGLJWK4HuwGLyMZml+luRfPLhqaWg2MIr8DuIT3xC2Hw==);strokeColor=#000000;spacingTop=-3;spacingBottom=-3;spacingLeft=-3;spacingRight=-3;points=[];labelBackgroundColor=none;rounded=0;html=1;whiteSpace=wrap;" parent="32" vertex="1">
          <mxGeometry x="30" width="150" height="30" as="geometry" />
        </mxCell>
        <mxCell id="35" style="vsdxID=3010000;fillColor=none;gradientColor=none;strokeColor=none;spacingTop=-3;spacingBottom=-3;spacingLeft=-3;spacingRight=-3;points=[];labelBackgroundColor=none;rounded=0;html=1;whiteSpace=wrap;" parent="23" vertex="1">
          <mxGeometry y="120" width="180" height="30" as="geometry" />
        </mxCell>
        <mxCell id="36" style="vsdxID=31;fillColor=none;gradientColor=none;shape=stencil(nZJZDsMgDERP43+Kj5Cm94gUUqxSiAjpcvuCrGahFVL4m8HPlkcYsJl0NyqQYgre3dST+qABzyAlWa08hagAW8BmcF5dvZttz37sEpnU3T3ShBf3idQhxXvrLgwashvwJKrRr/8LV6M7MIo14UDGLJWK4HuwGLyMZml+luRfPLhqaWg2MIr8DuIT3xC2Hw==);strokeColor=#000000;spacingTop=-3;spacingBottom=-3;spacingLeft=-3;spacingRight=-3;points=[];labelBackgroundColor=none;rounded=0;html=1;whiteSpace=wrap;" parent="35" vertex="1">
          <mxGeometry width="30" height="30" as="geometry" />
        </mxCell>
        <mxCell id="37" value="&lt;div style=&quot;font-size: 1px&quot;&gt;&lt;font style=&quot;font-size:11.64px;font-family:Helvetica;color:#000000;direction:ltr;letter-spacing:0px;line-height:120%;opacity:1&quot;&gt;CommentDate&lt;/font&gt;&lt;/div&gt;" style="verticalAlign=middle;align=left;overflow=width;vsdxID=32;fillColor=none;gradientColor=none;shape=stencil(nZJZDsMgDERP43+Kj5Cm94gUUqxSiAjpcvuCrGahFVL4m8HPlkcYsJl0NyqQYgre3dST+qABzyAlWa08hagAW8BmcF5dvZttz37sEpnU3T3ShBf3idQhxXvrLgwashvwJKrRr/8LV6M7MIo14UDGLJWK4HuwGLyMZml+luRfPLhqaWg2MIr8DuIT3xC2Hw==);strokeColor=#000000;spacingTop=-3;spacingBottom=-3;spacingLeft=-3;spacingRight=-3;points=[];labelBackgroundColor=none;rounded=0;html=1;whiteSpace=wrap;" parent="35" vertex="1">
          <mxGeometry x="30" width="150" height="30" as="geometry" />
        </mxCell>
        <mxCell id="38" style="vsdxID=3310000;fillColor=none;gradientColor=none;strokeColor=none;spacingTop=-3;spacingBottom=-3;spacingLeft=-3;spacingRight=-3;points=[];labelBackgroundColor=none;rounded=0;html=1;whiteSpace=wrap;" parent="23" vertex="1">
          <mxGeometry y="150" width="180" height="30" as="geometry" />
        </mxCell>
        <mxCell id="39" value="&lt;div style=&quot;font-size: 1px&quot;&gt;&lt;font style=&quot;font-size:11.64px;font-family:Helvetica;color:#000000;direction:ltr;letter-spacing:0px;line-height:120%;opacity:1&quot;&gt;FK&lt;/font&gt;&lt;/div&gt;" style="verticalAlign=middle;align=center;overflow=width;vsdxID=34;fillColor=none;gradientColor=none;shape=stencil(nZJZDsMgDERP43+Kj5Cm94gUUqxSiAjpcvuCrGahFVL4m8HPlkcYsJl0NyqQYgre3dST+qABzyAlWa08hagAW8BmcF5dvZttz37sEpnU3T3ShBf3idQhxXvrLgwashvwJKrRr/8LV6M7MIo14UDGLJWK4HuwGLyMZml+luRfPLhqaWg2MIr8DuIT3xC2Hw==);strokeColor=#000000;spacingTop=-3;spacingBottom=-3;spacingLeft=-3;spacingRight=-3;points=[];labelBackgroundColor=none;rounded=0;html=1;whiteSpace=wrap;" parent="38" vertex="1">
          <mxGeometry width="30" height="30" as="geometry" />
        </mxCell>
        <mxCell id="40" value="&lt;div style=&quot;font-size: 1px&quot;&gt;&lt;font style=&quot;font-size:11.64px;font-family:Helvetica;color:#000000;direction:ltr;letter-spacing:0px;line-height:120%;opacity:1&quot;&gt;MovieID&lt;/font&gt;&lt;/div&gt;" style="verticalAlign=middle;align=left;overflow=width;vsdxID=35;fillColor=none;gradientColor=none;shape=stencil(nZJZDsMgDERP43+Kj5Cm94gUUqxSiAjpcvuCrGahFVL4m8HPlkcYsJl0NyqQYgre3dST+qABzyAlWa08hagAW8BmcF5dvZttz37sEpnU3T3ShBf3idQhxXvrLgwashvwJKrRr/8LV6M7MIo14UDGLJWK4HuwGLyMZml+luRfPLhqaWg2MIr8DuIT3xC2Hw==);strokeColor=#000000;spacingTop=-3;spacingBottom=-3;spacingLeft=-3;spacingRight=-3;points=[];labelBackgroundColor=none;rounded=0;html=1;whiteSpace=wrap;" parent="38" vertex="1">
          <mxGeometry x="30" width="150" height="30" as="geometry" />
        </mxCell>
        <UserObject label="" tags="Background" id="41">
          <mxCell style="vsdxID=3610000;fillColor=none;gradientColor=none;strokeColor=none;spacingTop=-3;spacingBottom=-3;spacingLeft=-3;spacingRight=-3;points=[];labelBackgroundColor=none;rounded=0;html=1;whiteSpace=wrap;" parent="1" vertex="1">
            <mxGeometry x="470" y="1370" width="180" height="210" as="geometry" />
          </mxCell>
        </UserObject>
        <mxCell id="42" value="&lt;div style=&quot;&quot;&gt;&lt;font style=&quot;font-family: Helvetica; direction: ltr; letter-spacing: 0px; line-height: 120%; opacity: 1; font-size: 20px; color: rgb(255, 255, 255);&quot;&gt;&lt;b style=&quot;&quot;&gt;Movie&lt;/b&gt;&lt;/font&gt;&lt;/div&gt;" style="verticalAlign=top;align=center;overflow=width;vsdxID=36;fillColor=#e51400;shape=stencil(tZPdDsIgDIWfhlsChY15PfU9low54hwLm39vL0jUyLLEarxry/ma09ASUY5tNWgCbJyc3euzqaeWiDUBMH2rnZl8RMSGiLKxTu+cPfZ1zIcqKEN0sKfQ4RI5Fghg15hxSWF1r2yjuDP9opgtCzn7Wjqz4IOX+cZ0XZz9+f6HyR6ePjOMEqc2fvCM7M1zmitU/xkABc0UBpBAixwDZIpyiQEUp1JggCKjimOA5H/f1jFZRR+kd+dL8WbF5gY=);strokeColor=#B20000;spacingTop=-3;spacingBottom=-3;spacingLeft=-3;spacingRight=-3;points=[];labelBackgroundColor=none;rounded=0;html=1;whiteSpace=wrap;fontColor=#ffffff;" parent="41" vertex="1">
          <mxGeometry width="180" height="210" as="geometry" />
        </mxCell>
        <mxCell id="43" style="vsdxID=3710000;fillColor=none;gradientColor=none;strokeColor=none;spacingTop=-3;spacingBottom=-3;spacingLeft=-3;spacingRight=-3;points=[];labelBackgroundColor=none;rounded=0;html=1;whiteSpace=wrap;" parent="41" vertex="1">
          <mxGeometry y="30" width="180" height="30" as="geometry" />
        </mxCell>
        <mxCell id="44" style="vsdxID=37;fillColor=none;gradientColor=none;shape=stencil(UzV2Ls5ILEhVNTIoLinKz04tz0wpyVA1dlE1MsrMy0gtyiwBslSNXVWNndPyi1LTi/JL81Ig/IJEkEoQKze/DGRCBUSfAUiHkUElMs8NojAnMw9JoaEB2UphfKyKyVaKohDIQPgwLTMnBy5DhsdRFeL1OIa9kIghaDv1ggjFBWi2Axno6QAoBElDxq4A);strokeColor=#000000;spacingTop=-3;spacingBottom=-3;spacingLeft=-3;spacingRight=-3;points=[];labelBackgroundColor=none;rounded=0;html=1;whiteSpace=wrap;" parent="43" vertex="1">
          <mxGeometry width="180" height="30" as="geometry" />
        </mxCell>
        <mxCell id="45" value="&lt;div style=&quot;font-size: 1px&quot;&gt;&lt;font style=&quot;font-size:11.64px;font-family:Helvetica;color:#000000;direction:ltr;letter-spacing:0px;line-height:120%;opacity:1&quot;&gt;&lt;b&gt;PK&lt;/b&gt;&lt;/font&gt;&lt;/div&gt;" style="verticalAlign=middle;align=center;overflow=width;vsdxID=38;fillColor=none;gradientColor=none;shape=stencil(nZJZDsMgDERP43+Kj5Cm94gUUqxSiAjpcvuCrGahFVL4m8HPlkcYsJl0NyqQYgre3dST+qABzyAlWa08hagAW8BmcF5dvZttz37sEpnU3T3ShBf3idQhxXvrLgwashvwJKrRr/8LV6M7MIo14UDGLJWK4HuwGLyMZml+luRfPLhqaWg2MIr8DuIT3xC2Hw==);strokeColor=#000000;spacingTop=-3;spacingBottom=-3;spacingLeft=-3;spacingRight=-3;points=[];labelBackgroundColor=none;rounded=0;html=1;whiteSpace=wrap;" parent="43" vertex="1">
          <mxGeometry width="30" height="30" as="geometry" />
        </mxCell>
        <mxCell id="46" value="&lt;div style=&quot;font-size: 1px&quot;&gt;&lt;font style=&quot;font-size:11.64px;font-family:Helvetica;color:#000000;direction:ltr;letter-spacing:0px;line-height:120%;opacity:1&quot;&gt;&lt;u&gt;&lt;b&gt;MovieID&lt;/b&gt;&lt;/u&gt;&lt;/font&gt;&lt;/div&gt;" style="verticalAlign=middle;align=left;overflow=width;vsdxID=39;fillColor=none;gradientColor=none;shape=stencil(nZJZDsMgDERP43+Kj5Cm94gUUqxSiAjpcvuCrGahFVL4m8HPlkcYsJl0NyqQYgre3dST+qABzyAlWa08hagAW8BmcF5dvZttz37sEpnU3T3ShBf3idQhxXvrLgwashvwJKrRr/8LV6M7MIo14UDGLJWK4HuwGLyMZml+luRfPLhqaWg2MIr8DuIT3xC2Hw==);strokeColor=#000000;spacingTop=-3;spacingBottom=-3;spacingLeft=-3;spacingRight=-3;points=[];labelBackgroundColor=none;rounded=0;html=1;whiteSpace=wrap;" parent="43" vertex="1">
          <mxGeometry x="30" width="150" height="30" as="geometry" />
        </mxCell>
        <mxCell id="47" style="vsdxID=4010000;fillColor=none;gradientColor=none;strokeColor=none;spacingTop=-3;spacingBottom=-3;spacingLeft=-3;spacingRight=-3;points=[];labelBackgroundColor=none;rounded=0;html=1;whiteSpace=wrap;" parent="41" vertex="1">
          <mxGeometry y="60" width="180" height="30" as="geometry" />
        </mxCell>
        <mxCell id="48" style="vsdxID=41;fillColor=none;gradientColor=none;shape=stencil(nZJZDsMgDERP43+Kj5Cm94gUUqxSiAjpcvuCrGahFVL4m8HPlkcYsJl0NyqQYgre3dST+qABzyAlWa08hagAW8BmcF5dvZttz37sEpnU3T3ShBf3idQhxXvrLgwashvwJKrRr/8LV6M7MIo14UDGLJWK4HuwGLyMZml+luRfPLhqaWg2MIr8DuIT3xC2Hw==);strokeColor=#000000;spacingTop=-3;spacingBottom=-3;spacingLeft=-3;spacingRight=-3;points=[];labelBackgroundColor=none;rounded=0;html=1;whiteSpace=wrap;" parent="47" vertex="1">
          <mxGeometry width="30" height="30" as="geometry" />
        </mxCell>
        <mxCell id="49" value="&lt;div style=&quot;font-size: 1px&quot;&gt;&lt;font style=&quot;font-size:11.64px;font-family:Helvetica;color:#000000;direction:ltr;letter-spacing:0px;line-height:120%;opacity:1&quot;&gt;Title&lt;/font&gt;&lt;/div&gt;" style="verticalAlign=middle;align=left;overflow=width;vsdxID=42;fillColor=none;gradientColor=none;shape=stencil(nZJZDsMgDERP43+Kj5Cm94gUUqxSiAjpcvuCrGahFVL4m8HPlkcYsJl0NyqQYgre3dST+qABzyAlWa08hagAW8BmcF5dvZttz37sEpnU3T3ShBf3idQhxXvrLgwashvwJKrRr/8LV6M7MIo14UDGLJWK4HuwGLyMZml+luRfPLhqaWg2MIr8DuIT3xC2Hw==);strokeColor=#000000;spacingTop=-3;spacingBottom=-3;spacingLeft=-3;spacingRight=-3;points=[];labelBackgroundColor=none;rounded=0;html=1;whiteSpace=wrap;" parent="47" vertex="1">
          <mxGeometry x="30" width="150" height="30" as="geometry" />
        </mxCell>
        <mxCell id="50" style="vsdxID=4310000;fillColor=none;gradientColor=none;strokeColor=none;spacingTop=-3;spacingBottom=-3;spacingLeft=-3;spacingRight=-3;points=[];labelBackgroundColor=none;rounded=0;html=1;whiteSpace=wrap;" parent="41" vertex="1">
          <mxGeometry y="90" width="180" height="30" as="geometry" />
        </mxCell>
        <mxCell id="51" value="&lt;div style=&quot;font-size: 1px&quot;&gt;&lt;font style=&quot;font-size:11.64px;font-family:Helvetica;color:#000000;direction:ltr;letter-spacing:0px;line-height:120%;opacity:1&quot;&gt;FK&lt;/font&gt;&lt;/div&gt;" style="verticalAlign=middle;align=center;overflow=width;vsdxID=44;fillColor=none;gradientColor=none;shape=stencil(nZJZDsMgDERP43+Kj5Cm94gUUqxSiAjpcvuCrGahFVL4m8HPlkcYsJl0NyqQYgre3dST+qABzyAlWa08hagAW8BmcF5dvZttz37sEpnU3T3ShBf3idQhxXvrLgwashvwJKrRr/8LV6M7MIo14UDGLJWK4HuwGLyMZml+luRfPLhqaWg2MIr8DuIT3xC2Hw==);strokeColor=#000000;spacingTop=-3;spacingBottom=-3;spacingLeft=-3;spacingRight=-3;points=[];labelBackgroundColor=none;rounded=0;html=1;whiteSpace=wrap;" parent="50" vertex="1">
          <mxGeometry width="30" height="30" as="geometry" />
        </mxCell>
        <mxCell id="52" value="&lt;div style=&quot;font-size: 1px&quot;&gt;&lt;font style=&quot;font-size:11.64px;font-family:Helvetica;color:#000000;direction:ltr;letter-spacing:0px;line-height:120%;opacity:1&quot;&gt;GenreID&lt;/font&gt;&lt;/div&gt;" style="verticalAlign=middle;align=left;overflow=width;vsdxID=45;fillColor=none;gradientColor=none;shape=stencil(nZJZDsMgDERP43+Kj5Cm94gUUqxSiAjpcvuCrGahFVL4m8HPlkcYsJl0NyqQYgre3dST+qABzyAlWa08hagAW8BmcF5dvZttz37sEpnU3T3ShBf3idQhxXvrLgwashvwJKrRr/8LV6M7MIo14UDGLJWK4HuwGLyMZml+luRfPLhqaWg2MIr8DuIT3xC2Hw==);strokeColor=#000000;spacingTop=-3;spacingBottom=-3;spacingLeft=-3;spacingRight=-3;points=[];labelBackgroundColor=none;rounded=0;html=1;whiteSpace=wrap;" parent="50" vertex="1">
          <mxGeometry x="30" width="150" height="30" as="geometry" />
        </mxCell>
        <mxCell id="53" style="vsdxID=4610000;fillColor=none;gradientColor=none;strokeColor=none;spacingTop=-3;spacingBottom=-3;spacingLeft=-3;spacingRight=-3;points=[];labelBackgroundColor=none;rounded=0;html=1;whiteSpace=wrap;" parent="41" vertex="1">
          <mxGeometry y="120" width="180" height="30" as="geometry" />
        </mxCell>
        <mxCell id="54" style="vsdxID=47;fillColor=none;gradientColor=none;shape=stencil(nZJZDsMgDERP43+Kj5Cm94gUUqxSiAjpcvuCrGahFVL4m8HPlkcYsJl0NyqQYgre3dST+qABzyAlWa08hagAW8BmcF5dvZttz37sEpnU3T3ShBf3idQhxXvrLgwashvwJKrRr/8LV6M7MIo14UDGLJWK4HuwGLyMZml+luRfPLhqaWg2MIr8DuIT3xC2Hw==);strokeColor=#000000;spacingTop=-3;spacingBottom=-3;spacingLeft=-3;spacingRight=-3;points=[];labelBackgroundColor=none;rounded=0;html=1;whiteSpace=wrap;" parent="53" vertex="1">
          <mxGeometry width="30" height="30" as="geometry" />
        </mxCell>
        <mxCell id="55" value="&lt;div style=&quot;font-size: 1px&quot;&gt;&lt;font style=&quot;font-size:11.64px;font-family:Helvetica;color:#000000;direction:ltr;letter-spacing:0px;line-height:120%;opacity:1&quot;&gt;ReleaseYear&lt;/font&gt;&lt;/div&gt;" style="verticalAlign=middle;align=left;overflow=width;vsdxID=48;fillColor=none;gradientColor=none;shape=stencil(nZJZDsMgDERP43+Kj5Cm94gUUqxSiAjpcvuCrGahFVL4m8HPlkcYsJl0NyqQYgre3dST+qABzyAlWa08hagAW8BmcF5dvZttz37sEpnU3T3ShBf3idQhxXvrLgwashvwJKrRr/8LV6M7MIo14UDGLJWK4HuwGLyMZml+luRfPLhqaWg2MIr8DuIT3xC2Hw==);strokeColor=#000000;spacingTop=-3;spacingBottom=-3;spacingLeft=-3;spacingRight=-3;points=[];labelBackgroundColor=none;rounded=0;html=1;whiteSpace=wrap;" parent="53" vertex="1">
          <mxGeometry x="30" width="150" height="30" as="geometry" />
        </mxCell>
        <mxCell id="56" style="vsdxID=4910000;fillColor=none;gradientColor=none;strokeColor=none;spacingTop=-3;spacingBottom=-3;spacingLeft=-3;spacingRight=-3;points=[];labelBackgroundColor=none;rounded=0;html=1;whiteSpace=wrap;align=left;" parent="41" vertex="1">
          <mxGeometry y="150" width="180" height="30" as="geometry" />
        </mxCell>
        <mxCell id="57" style="vsdxID=50;fillColor=none;gradientColor=none;shape=stencil(nZJZDsMgDERP43+Kj5Cm94gUUqxSiAjpcvuCrGahFVL4m8HPlkcYsJl0NyqQYgre3dST+qABzyAlWa08hagAW8BmcF5dvZttz37sEpnU3T3ShBf3idQhxXvrLgwashvwJKrRr/8LV6M7MIo14UDGLJWK4HuwGLyMZml+luRfPLhqaWg2MIr8DuIT3xC2Hw==);strokeColor=#000000;spacingTop=-3;spacingBottom=-3;spacingLeft=-3;spacingRight=-3;points=[];labelBackgroundColor=none;rounded=0;html=1;whiteSpace=wrap;" parent="56" vertex="1">
          <mxGeometry width="30" height="30" as="geometry" />
        </mxCell>
        <mxCell id="58" value="&lt;div style=&quot;font-size: 1px&quot;&gt;&lt;font style=&quot;font-size:11.64px;font-family:Helvetica;color:#000000;direction:ltr;letter-spacing:0px;line-height:120%;opacity:1&quot;&gt;Duration&lt;/font&gt;&lt;/div&gt;" style="verticalAlign=middle;align=left;overflow=width;vsdxID=51;fillColor=none;gradientColor=none;shape=stencil(nZJZDsMgDERP43+Kj5Cm94gUUqxSiAjpcvuCrGahFVL4m8HPlkcYsJl0NyqQYgre3dST+qABzyAlWa08hagAW8BmcF5dvZttz37sEpnU3T3ShBf3idQhxXvrLgwashvwJKrRr/8LV6M7MIo14UDGLJWK4HuwGLyMZml+luRfPLhqaWg2MIr8DuIT3xC2Hw==);strokeColor=#000000;spacingTop=-3;spacingBottom=-3;spacingLeft=-3;spacingRight=-3;points=[];labelBackgroundColor=none;rounded=0;html=1;whiteSpace=wrap;" parent="56" vertex="1">
          <mxGeometry x="30" width="150" height="30" as="geometry" />
        </mxCell>
        <mxCell id="59" style="vsdxID=5210000;fillColor=none;gradientColor=none;strokeColor=none;spacingTop=-3;spacingBottom=-3;spacingLeft=-3;spacingRight=-3;points=[];labelBackgroundColor=none;rounded=0;html=1;whiteSpace=wrap;" parent="41" vertex="1">
          <mxGeometry y="180" width="180" height="30" as="geometry" />
        </mxCell>
        <mxCell id="60" style="vsdxID=53;fillColor=none;gradientColor=none;shape=stencil(nZJZDsMgDERP43+Kj5Cm94gUUqxSiAjpcvuCrGahFVL4m8HPlkcYsJl0NyqQYgre3dST+qABzyAlWa08hagAW8BmcF5dvZttz37sEpnU3T3ShBf3idQhxXvrLgwashvwJKrRr/8LV6M7MIo14UDGLJWK4HuwGLyMZml+luRfPLhqaWg2MIr8DuIT3xC2Hw==);strokeColor=#000000;spacingTop=-3;spacingBottom=-3;spacingLeft=-3;spacingRight=-3;points=[];labelBackgroundColor=none;rounded=0;html=1;whiteSpace=wrap;" parent="59" vertex="1">
          <mxGeometry width="30" height="30" as="geometry" />
        </mxCell>
        <mxCell id="61" value="&lt;div style=&quot;font-size: 1px&quot;&gt;&lt;font style=&quot;font-size:11.64px;font-family:Helvetica;color:#000000;direction:ltr;letter-spacing:0px;line-height:120%;opacity:1&quot;&gt;Language&lt;/font&gt;&lt;/div&gt;" style="verticalAlign=middle;align=left;overflow=width;vsdxID=54;fillColor=none;gradientColor=none;shape=stencil(nZJZDsMgDERP43+Kj5Cm94gUUqxSiAjpcvuCrGahFVL4m8HPlkcYsJl0NyqQYgre3dST+qABzyAlWa08hagAW8BmcF5dvZttz37sEpnU3T3ShBf3idQhxXvrLgwashvwJKrRr/8LV6M7MIo14UDGLJWK4HuwGLyMZml+luRfPLhqaWg2MIr8DuIT3xC2Hw==);strokeColor=#000000;spacingTop=-3;spacingBottom=-3;spacingLeft=-3;spacingRight=-3;points=[];labelBackgroundColor=none;rounded=0;html=1;whiteSpace=wrap;" parent="59" vertex="1">
          <mxGeometry x="30" width="150" height="30" as="geometry" />
        </mxCell>
        <UserObject label="" tags="Background" id="62">
          <mxCell style="vsdxID=5510000;fillColor=none;gradientColor=none;strokeColor=none;spacingTop=-3;spacingBottom=-3;spacingLeft=-3;spacingRight=-3;points=[];labelBackgroundColor=none;rounded=0;html=1;whiteSpace=wrap;verticalAlign=middle;align=center;" parent="1" vertex="1">
            <mxGeometry x="770" y="1140" width="180" height="180" as="geometry" />
          </mxCell>
        </UserObject>
        <mxCell id="63" value="&lt;div style=&quot;&quot;&gt;&lt;font style=&quot;font-family: Helvetica; direction: ltr; letter-spacing: 0px; line-height: 120%; opacity: 1; font-size: 20px; color: rgb(255, 255, 255);&quot;&gt;&lt;b style=&quot;&quot;&gt;Rating&lt;/b&gt;&lt;/font&gt;&lt;/div&gt;" style="verticalAlign=top;align=center;overflow=width;vsdxID=55;fillColor=#e51400;shape=stencil(tVPbDsIgDP2avi6MRvR9zv9YMiZEhIXN298LEl2EzAyNb6ftOc0ptIDVIJqeAyXDaM2BX2Q7CsAtUCq14FaODgHWgFVnLN9bc9JtiPvGMz06mrPvcA064hWU3EJUsoKtH5ldICupZ8lknliSr6mJBQcm851UKsz+qv9hsqenZYazyLGNHzxn9p7KS/snAsQCMUew+vQ0CZvl+tnk+on+6m21orVyIL4hlwr3h/Ud);strokeColor=#B20000;spacingTop=-3;spacingBottom=-3;spacingLeft=-3;spacingRight=-3;points=[];labelBackgroundColor=none;rounded=0;html=1;whiteSpace=wrap;fontColor=#ffffff;fontSize=16;horizontal=1;" parent="62" vertex="1">
          <mxGeometry width="180" height="180" as="geometry" />
        </mxCell>
        <mxCell id="64" style="vsdxID=5610000;fillColor=none;gradientColor=none;strokeColor=none;spacingTop=-3;spacingBottom=-3;spacingLeft=-3;spacingRight=-3;points=[];labelBackgroundColor=none;rounded=0;html=1;whiteSpace=wrap;" parent="62" vertex="1">
          <mxGeometry y="30" width="180" height="30" as="geometry" />
        </mxCell>
        <mxCell id="65" style="vsdxID=56;fillColor=none;gradientColor=none;shape=stencil(UzV2Ls5ILEhVNTIoLinKz04tz0wpyVA1dlE1MsrMy0gtyiwBslSNXVWNndPyi1LTi/JL81Ig/IJEkEoQKze/DGRCBUSfAUiHkUElMs8NojAnMw9JoaEB2UphfKyKyVaKohDIQPgwLTMnBy5DhsdRFeL1OIa9kIghaDv1ggjFBWi2Axno6QAoBElDxq4A);strokeColor=#000000;spacingTop=-3;spacingBottom=-3;spacingLeft=-3;spacingRight=-3;points=[];labelBackgroundColor=none;rounded=0;html=1;whiteSpace=wrap;" parent="64" vertex="1">
          <mxGeometry width="180" height="30" as="geometry" />
        </mxCell>
        <mxCell id="66" value="&lt;div style=&quot;font-size: 1px&quot;&gt;&lt;font style=&quot;font-size:11.64px;font-family:Helvetica;color:#000000;direction:ltr;letter-spacing:0px;line-height:120%;opacity:1&quot;&gt;&lt;b&gt;PK&lt;/b&gt;&lt;/font&gt;&lt;/div&gt;" style="verticalAlign=middle;align=center;overflow=width;vsdxID=57;fillColor=none;gradientColor=none;shape=stencil(nZJZDsMgDERP43+Kj5Cm94gUUqxSiAjpcvuCrGahFVL4m8HPlkcYsJl0NyqQYgre3dST+qABzyAlWa08hagAW8BmcF5dvZttz37sEpnU3T3ShBf3idQhxXvrLgwashvwJKrRr/8LV6M7MIo14UDGLJWK4HuwGLyMZml+luRfPLhqaWg2MIr8DuIT3xC2Hw==);strokeColor=#000000;spacingTop=-3;spacingBottom=-3;spacingLeft=-3;spacingRight=-3;points=[];labelBackgroundColor=none;rounded=0;html=1;whiteSpace=wrap;" parent="64" vertex="1">
          <mxGeometry width="30" height="30" as="geometry" />
        </mxCell>
        <mxCell id="67" value="&lt;div style=&quot;font-size: 1px&quot;&gt;&lt;font style=&quot;font-size:11.64px;font-family:Helvetica;color:#000000;direction:ltr;letter-spacing:0px;line-height:120%;opacity:1&quot;&gt;&lt;u&gt;&lt;b&gt;RatingID&lt;/b&gt;&lt;/u&gt;&lt;/font&gt;&lt;/div&gt;" style="verticalAlign=middle;align=left;overflow=width;vsdxID=58;fillColor=none;gradientColor=none;shape=stencil(nZJZDsMgDERP43+Kj5Cm94gUUqxSiAjpcvuCrGahFVL4m8HPlkcYsJl0NyqQYgre3dST+qABzyAlWa08hagAW8BmcF5dvZttz37sEpnU3T3ShBf3idQhxXvrLgwashvwJKrRr/8LV6M7MIo14UDGLJWK4HuwGLyMZml+luRfPLhqaWg2MIr8DuIT3xC2Hw==);strokeColor=#000000;spacingTop=-3;spacingBottom=-3;spacingLeft=-3;spacingRight=-3;points=[];labelBackgroundColor=none;rounded=0;html=1;whiteSpace=wrap;" parent="64" vertex="1">
          <mxGeometry x="30" width="150" height="30" as="geometry" />
        </mxCell>
        <mxCell id="68" style="vsdxID=5910000;fillColor=none;gradientColor=none;strokeColor=none;spacingTop=-3;spacingBottom=-3;spacingLeft=-3;spacingRight=-3;points=[];labelBackgroundColor=none;rounded=0;html=1;whiteSpace=wrap;" parent="62" vertex="1">
          <mxGeometry y="60" width="180" height="30" as="geometry" />
        </mxCell>
        <mxCell id="69" style="vsdxID=60;fillColor=none;gradientColor=none;shape=stencil(nZJZDsMgDERP43+Kj5Cm94gUUqxSiAjpcvuCrGahFVL4m8HPlkcYsJl0NyqQYgre3dST+qABzyAlWa08hagAW8BmcF5dvZttz37sEpnU3T3ShBf3idQhxXvrLgwashvwJKrRr/8LV6M7MIo14UDGLJWK4HuwGLyMZml+luRfPLhqaWg2MIr8DuIT3xC2Hw==);strokeColor=#000000;spacingTop=-3;spacingBottom=-3;spacingLeft=-3;spacingRight=-3;points=[];labelBackgroundColor=none;rounded=0;html=1;whiteSpace=wrap;" parent="68" vertex="1">
          <mxGeometry width="30" height="30" as="geometry" />
        </mxCell>
        <mxCell id="70" value="&lt;div style=&quot;font-size: 1px&quot;&gt;&lt;font style=&quot;font-size:11.64px;font-family:Helvetica;color:#000000;direction:ltr;letter-spacing:0px;line-height:120%;opacity:1&quot;&gt;RatingGrade&lt;/font&gt;&lt;/div&gt;" style="verticalAlign=middle;align=left;overflow=width;vsdxID=61;fillColor=none;gradientColor=none;shape=stencil(nZJZDsMgDERP43+Kj5Cm94gUUqxSiAjpcvuCrGahFVL4m8HPlkcYsJl0NyqQYgre3dST+qABzyAlWa08hagAW8BmcF5dvZttz37sEpnU3T3ShBf3idQhxXvrLgwashvwJKrRr/8LV6M7MIo14UDGLJWK4HuwGLyMZml+luRfPLhqaWg2MIr8DuIT3xC2Hw==);strokeColor=#000000;spacingTop=-3;spacingBottom=-3;spacingLeft=-3;spacingRight=-3;points=[];labelBackgroundColor=none;rounded=0;html=1;whiteSpace=wrap;" parent="68" vertex="1">
          <mxGeometry x="30" width="150" height="30" as="geometry" />
        </mxCell>
        <mxCell id="71" style="vsdxID=6210000;fillColor=none;gradientColor=none;strokeColor=none;spacingTop=-3;spacingBottom=-3;spacingLeft=-3;spacingRight=-3;points=[];labelBackgroundColor=none;rounded=0;html=1;whiteSpace=wrap;align=left;" parent="62" vertex="1">
          <mxGeometry y="90" width="180" height="30" as="geometry" />
        </mxCell>
        <mxCell id="72" style="vsdxID=63;fillColor=none;gradientColor=none;shape=stencil(nZJZDsMgDERP43+Kj5Cm94gUUqxSiAjpcvuCrGahFVL4m8HPlkcYsJl0NyqQYgre3dST+qABzyAlWa08hagAW8BmcF5dvZttz37sEpnU3T3ShBf3idQhxXvrLgwashvwJKrRr/8LV6M7MIo14UDGLJWK4HuwGLyMZml+luRfPLhqaWg2MIr8DuIT3xC2Hw==);strokeColor=#000000;spacingTop=-3;spacingBottom=-3;spacingLeft=-3;spacingRight=-3;points=[];labelBackgroundColor=none;rounded=0;html=1;whiteSpace=wrap;" parent="71" vertex="1">
          <mxGeometry width="30" height="30" as="geometry" />
        </mxCell>
        <mxCell id="73" value="&lt;div style=&quot;font-size: 1px&quot;&gt;&lt;font style=&quot;font-size:11.64px;font-family:Helvetica;color:#000000;direction:ltr;letter-spacing:0px;line-height:120%;opacity:1&quot;&gt;RatingDate&lt;/font&gt;&lt;/div&gt;" style="verticalAlign=middle;align=left;overflow=width;vsdxID=64;fillColor=none;gradientColor=none;shape=stencil(nZJZDsMgDERP43+Kj5Cm94gUUqxSiAjpcvuCrGahFVL4m8HPlkcYsJl0NyqQYgre3dST+qABzyAlWa08hagAW8BmcF5dvZttz37sEpnU3T3ShBf3idQhxXvrLgwashvwJKrRr/8LV6M7MIo14UDGLJWK4HuwGLyMZml+luRfPLhqaWg2MIr8DuIT3xC2Hw==);strokeColor=#000000;spacingTop=-3;spacingBottom=-3;spacingLeft=-3;spacingRight=-3;points=[];labelBackgroundColor=none;rounded=0;html=1;whiteSpace=wrap;" parent="71" vertex="1">
          <mxGeometry x="30" width="150" height="30" as="geometry" />
        </mxCell>
        <mxCell id="74" style="vsdxID=6510000;fillColor=none;gradientColor=none;strokeColor=none;spacingTop=-3;spacingBottom=-3;spacingLeft=-3;spacingRight=-3;points=[];labelBackgroundColor=none;rounded=0;html=1;whiteSpace=wrap;" parent="62" vertex="1">
          <mxGeometry y="120" width="180" height="30" as="geometry" />
        </mxCell>
        <mxCell id="75" value="&lt;div style=&quot;font-size: 1px&quot;&gt;&lt;font style=&quot;font-size:11.64px;font-family:Helvetica;color:#000000;direction:ltr;letter-spacing:0px;line-height:120%;opacity:1&quot;&gt;FK&lt;/font&gt;&lt;/div&gt;" style="verticalAlign=middle;align=center;overflow=width;vsdxID=66;fillColor=none;gradientColor=none;shape=stencil(nZJZDsMgDERP43+Kj5Cm94gUUqxSiAjpcvuCrGahFVL4m8HPlkcYsJl0NyqQYgre3dST+qABzyAlWa08hagAW8BmcF5dvZttz37sEpnU3T3ShBf3idQhxXvrLgwashvwJKrRr/8LV6M7MIo14UDGLJWK4HuwGLyMZml+luRfPLhqaWg2MIr8DuIT3xC2Hw==);strokeColor=#000000;spacingTop=-3;spacingBottom=-3;spacingLeft=-3;spacingRight=-3;points=[];labelBackgroundColor=none;rounded=0;html=1;whiteSpace=wrap;" parent="74" vertex="1">
          <mxGeometry width="30" height="30" as="geometry" />
        </mxCell>
        <mxCell id="76" value="&lt;div style=&quot;font-size: 1px&quot;&gt;&lt;font style=&quot;font-size:11.64px;font-family:Helvetica;color:#000000;direction:ltr;letter-spacing:0px;line-height:120%;opacity:1&quot;&gt;ProfileID&lt;/font&gt;&lt;/div&gt;" style="verticalAlign=middle;align=left;overflow=width;vsdxID=67;fillColor=none;gradientColor=none;shape=stencil(nZJZDsMgDERP43+Kj5Cm94gUUqxSiAjpcvuCrGahFVL4m8HPlkcYsJl0NyqQYgre3dST+qABzyAlWa08hagAW8BmcF5dvZttz37sEpnU3T3ShBf3idQhxXvrLgwashvwJKrRr/8LV6M7MIo14UDGLJWK4HuwGLyMZml+luRfPLhqaWg2MIr8DuIT3xC2Hw==);strokeColor=#000000;spacingTop=-3;spacingBottom=-3;spacingLeft=-3;spacingRight=-3;points=[];labelBackgroundColor=none;rounded=0;html=1;whiteSpace=wrap;" parent="74" vertex="1">
          <mxGeometry x="30" width="150" height="30" as="geometry" />
        </mxCell>
        <mxCell id="77" style="vsdxID=6810000;fillColor=none;gradientColor=none;strokeColor=none;spacingTop=-3;spacingBottom=-3;spacingLeft=-3;spacingRight=-3;points=[];labelBackgroundColor=none;rounded=0;html=1;whiteSpace=wrap;" parent="62" vertex="1">
          <mxGeometry y="150" width="180" height="30" as="geometry" />
        </mxCell>
        <mxCell id="78" value="&lt;div style=&quot;font-size: 1px&quot;&gt;&lt;font style=&quot;font-size:11.64px;font-family:Helvetica;color:#000000;direction:ltr;letter-spacing:0px;line-height:120%;opacity:1&quot;&gt;FK&lt;/font&gt;&lt;/div&gt;" style="verticalAlign=middle;align=center;overflow=width;vsdxID=69;fillColor=none;gradientColor=none;shape=stencil(nZJZDsMgDERP43+Kj5Cm94gUUqxSiAjpcvuCrGahFVL4m8HPlkcYsJl0NyqQYgre3dST+qABzyAlWa08hagAW8BmcF5dvZttz37sEpnU3T3ShBf3idQhxXvrLgwashvwJKrRr/8LV6M7MIo14UDGLJWK4HuwGLyMZml+luRfPLhqaWg2MIr8DuIT3xC2Hw==);strokeColor=#000000;spacingTop=-3;spacingBottom=-3;spacingLeft=-3;spacingRight=-3;points=[];labelBackgroundColor=none;rounded=0;html=1;whiteSpace=wrap;" parent="77" vertex="1">
          <mxGeometry width="30" height="30" as="geometry" />
        </mxCell>
        <mxCell id="79" value="&lt;div style=&quot;font-size: 1px&quot;&gt;&lt;font style=&quot;font-size:11.64px;font-family:Helvetica;color:#000000;direction:ltr;letter-spacing:0px;line-height:120%;opacity:1&quot;&gt;Movie&lt;/font&gt;&lt;font style=&quot;font-size:11.64px;font-family:Helvetica;color:#000000;direction:ltr;letter-spacing:0px;line-height:120%;opacity:1&quot;&gt;ID&lt;/font&gt;&lt;/div&gt;" style="verticalAlign=middle;align=left;overflow=width;vsdxID=70;fillColor=none;gradientColor=none;shape=stencil(nZJZDsMgDERP43+Kj5Cm94gUUqxSiAjpcvuCrGahFVL4m8HPlkcYsJl0NyqQYgre3dST+qABzyAlWa08hagAW8BmcF5dvZttz37sEpnU3T3ShBf3idQhxXvrLgwashvwJKrRr/8LV6M7MIo14UDGLJWK4HuwGLyMZml+luRfPLhqaWg2MIr8DuIT3xC2Hw==);strokeColor=#000000;spacingTop=-3;spacingBottom=-3;spacingLeft=-3;spacingRight=-3;points=[];labelBackgroundColor=none;rounded=0;html=1;whiteSpace=wrap;" parent="77" vertex="1">
          <mxGeometry x="30" width="150" height="30" as="geometry" />
        </mxCell>
        <UserObject label="" tags="Background" id="80">
          <mxCell style="vsdxID=7110000;fillColor=none;gradientColor=none;strokeColor=none;spacingTop=-3;spacingBottom=-3;spacingLeft=-3;spacingRight=-3;points=[];labelBackgroundColor=none;rounded=0;html=1;whiteSpace=wrap;" parent="1" vertex="1">
            <mxGeometry x="230" y="1430" width="180" height="90" as="geometry" />
          </mxCell>
        </UserObject>
        <mxCell id="81" value="&lt;div style=&quot;&quot;&gt;&lt;font style=&quot;font-family: Helvetica; direction: ltr; letter-spacing: 0px; line-height: 120%; opacity: 1; font-size: 20px; color: rgb(255, 255, 255);&quot;&gt;&lt;b style=&quot;&quot;&gt;Genre&lt;/b&gt;&lt;/font&gt;&lt;/div&gt;" style="verticalAlign=top;align=center;overflow=width;vsdxID=71;fillColor=#e51400;shape=stencil(tVLRDsIgDPyavi6MJvgBc/7HkjEhIiwMdf69IHFGyJKh8e163DVXWsBmEt3IgZLJWXPiN9k7AbgHSqUW3ErnEWAL2AzG8qM1F93HeuyCMqCzuYYOc/SR4KDkHivECvHJHKJYSb0qJuvCmnwtzSJ48A4/SKXi7Mv7HyZ7ZdoUuEicxfghc2HvmlVsV9Q/M7CF2WhI/uZjlckaPUhv1lPx3rF9AA==);strokeColor=#B20000;spacingTop=-3;spacingBottom=-3;spacingLeft=-3;spacingRight=-3;points=[];labelBackgroundColor=none;rounded=0;html=1;whiteSpace=wrap;fontColor=#ffffff;" parent="80" vertex="1">
          <mxGeometry width="180" height="90" as="geometry" />
        </mxCell>
        <mxCell id="82" style="vsdxID=7210000;fillColor=none;gradientColor=none;strokeColor=none;spacingTop=-3;spacingBottom=-3;spacingLeft=-3;spacingRight=-3;points=[];labelBackgroundColor=none;rounded=0;html=1;whiteSpace=wrap;" parent="80" vertex="1">
          <mxGeometry y="30" width="180" height="30" as="geometry" />
        </mxCell>
        <mxCell id="83" style="vsdxID=72;fillColor=none;gradientColor=none;shape=stencil(UzV2Ls5ILEhVNTIoLinKz04tz0wpyVA1dlE1MsrMy0gtyiwBslSNXVWNndPyi1LTi/JL81Ig/IJEkEoQKze/DGRCBUSfAUiHkUElMs8NojAnMw9JoaEB2UphfKyKyVaKohDIQPgwLTMnBy5DhsdRFeL1OIa9kIghaDv1ggjFBWi2Axno6QAoBElDxq4A);strokeColor=#000000;spacingTop=-3;spacingBottom=-3;spacingLeft=-3;spacingRight=-3;points=[];labelBackgroundColor=none;rounded=0;html=1;whiteSpace=wrap;" parent="82" vertex="1">
          <mxGeometry width="180" height="30" as="geometry" />
        </mxCell>
        <mxCell id="84" value="&lt;div style=&quot;font-size: 1px&quot;&gt;&lt;font style=&quot;font-size:11.64px;font-family:Helvetica;color:#000000;direction:ltr;letter-spacing:0px;line-height:120%;opacity:1&quot;&gt;&lt;b&gt;PK&lt;/b&gt;&lt;/font&gt;&lt;/div&gt;" style="verticalAlign=middle;align=center;overflow=width;vsdxID=73;fillColor=none;gradientColor=none;shape=stencil(nZJZDsMgDERP43+Kj5Cm94gUUqxSiAjpcvuCrGahFVL4m8HPlkcYsJl0NyqQYgre3dST+qABzyAlWa08hagAW8BmcF5dvZttz37sEpnU3T3ShBf3idQhxXvrLgwashvwJKrRr/8LV6M7MIo14UDGLJWK4HuwGLyMZml+luRfPLhqaWg2MIr8DuIT3xC2Hw==);strokeColor=#000000;spacingTop=-3;spacingBottom=-3;spacingLeft=-3;spacingRight=-3;points=[];labelBackgroundColor=none;rounded=0;html=1;whiteSpace=wrap;" parent="82" vertex="1">
          <mxGeometry width="30" height="30" as="geometry" />
        </mxCell>
        <mxCell id="85" value="&lt;div style=&quot;font-size: 1px&quot;&gt;&lt;font style=&quot;font-size:11.64px;font-family:Helvetica;color:#000000;direction:ltr;letter-spacing:0px;line-height:120%;opacity:1&quot;&gt;&lt;u&gt;&lt;b&gt;GenreID&lt;/b&gt;&lt;/u&gt;&lt;/font&gt;&lt;/div&gt;" style="verticalAlign=middle;align=left;overflow=width;vsdxID=74;fillColor=none;gradientColor=none;shape=stencil(nZJZDsMgDERP43+Kj5Cm94gUUqxSiAjpcvuCrGahFVL4m8HPlkcYsJl0NyqQYgre3dST+qABzyAlWa08hagAW8BmcF5dvZttz37sEpnU3T3ShBf3idQhxXvrLgwashvwJKrRr/8LV6M7MIo14UDGLJWK4HuwGLyMZml+luRfPLhqaWg2MIr8DuIT3xC2Hw==);strokeColor=#000000;spacingTop=-3;spacingBottom=-3;spacingLeft=-3;spacingRight=-3;points=[];labelBackgroundColor=none;rounded=0;html=1;whiteSpace=wrap;" parent="82" vertex="1">
          <mxGeometry x="30" width="150" height="30" as="geometry" />
        </mxCell>
        <mxCell id="86" style="vsdxID=7510000;fillColor=none;gradientColor=none;strokeColor=none;spacingTop=-3;spacingBottom=-3;spacingLeft=-3;spacingRight=-3;points=[];labelBackgroundColor=none;rounded=0;html=1;whiteSpace=wrap;" parent="80" vertex="1">
          <mxGeometry y="60" width="180" height="30" as="geometry" />
        </mxCell>
        <mxCell id="87" style="vsdxID=76;fillColor=none;gradientColor=none;shape=stencil(nZJZDsMgDERP43+Kj5Cm94gUUqxSiAjpcvuCrGahFVL4m8HPlkcYsJl0NyqQYgre3dST+qABzyAlWa08hagAW8BmcF5dvZttz37sEpnU3T3ShBf3idQhxXvrLgwashvwJKrRr/8LV6M7MIo14UDGLJWK4HuwGLyMZml+luRfPLhqaWg2MIr8DuIT3xC2Hw==);strokeColor=#000000;spacingTop=-3;spacingBottom=-3;spacingLeft=-3;spacingRight=-3;points=[];labelBackgroundColor=none;rounded=0;html=1;whiteSpace=wrap;" parent="86" vertex="1">
          <mxGeometry width="30" height="30" as="geometry" />
        </mxCell>
        <mxCell id="88" value="&lt;div style=&quot;font-size: 1px&quot;&gt;&lt;font style=&quot;font-size:11.64px;font-family:Helvetica;color:#000000;direction:ltr;letter-spacing:0px;line-height:120%;opacity:1&quot;&gt;GenreName&lt;/font&gt;&lt;/div&gt;" style="verticalAlign=middle;align=left;overflow=width;vsdxID=77;fillColor=none;gradientColor=none;shape=stencil(nZJZDsMgDERP43+Kj5Cm94gUUqxSiAjpcvuCrGahFVL4m8HPlkcYsJl0NyqQYgre3dST+qABzyAlWa08hagAW8BmcF5dvZttz37sEpnU3T3ShBf3idQhxXvrLgwashvwJKrRr/8LV6M7MIo14UDGLJWK4HuwGLyMZml+luRfPLhqaWg2MIr8DuIT3xC2Hw==);strokeColor=#000000;spacingTop=-3;spacingBottom=-3;spacingLeft=-3;spacingRight=-3;points=[];labelBackgroundColor=none;rounded=0;html=1;whiteSpace=wrap;" parent="86" vertex="1">
          <mxGeometry x="30" width="150" height="30" as="geometry" />
        </mxCell>
        <UserObject label="" tags="Background" id="89">
          <mxCell style="vsdxID=7810000;fillColor=none;gradientColor=none;strokeColor=none;spacingTop=-3;spacingBottom=-3;spacingLeft=-3;spacingRight=-3;points=[];labelBackgroundColor=none;rounded=0;html=1;whiteSpace=wrap;" parent="1" vertex="1">
            <mxGeometry x="1150" y="1380" width="180" height="120" as="geometry" />
          </mxCell>
        </UserObject>
        <mxCell id="90" value="&lt;div style=&quot;&quot;&gt;&lt;font style=&quot;font-family: Helvetica; direction: ltr; letter-spacing: 0px; line-height: 120%; opacity: 1; font-size: 20px; color: rgb(255, 255, 255);&quot;&gt;&lt;b style=&quot;&quot;&gt;UserProfile&lt;/b&gt;&lt;/font&gt;&lt;/div&gt;" style="verticalAlign=top;align=center;overflow=width;vsdxID=78;fillColor=#e51400;shape=stencil(rZPdDoMgDIWfprcLQtQHcO49TMRBxsAg+3v7wZptAeMiZnctfD2cUgDWTKIbOVAyOWtO/CZ7J4DtgVKpBbfS+QhYC6wZjOVHay66x3zsAhmis7kGhTvWkVBByQMzWr7SA5JK6kWSLIMF2YzG5/vga3uQSmHXn/1/9/R2s8pqFhx72Oo2R7WodlW9XnlGl7+6m9F1lnZyddGYkxH7IH3Jfgl/AWuf);strokeColor=#B20000;spacingTop=-3;spacingBottom=-3;spacingLeft=-3;spacingRight=-3;points=[];labelBackgroundColor=none;rounded=0;html=1;whiteSpace=wrap;fontColor=#ffffff;" parent="89" vertex="1">
          <mxGeometry width="180" height="120" as="geometry" />
        </mxCell>
        <mxCell id="91" style="vsdxID=7910000;fillColor=none;gradientColor=none;strokeColor=none;spacingTop=-3;spacingBottom=-3;spacingLeft=-3;spacingRight=-3;points=[];labelBackgroundColor=none;rounded=0;html=1;whiteSpace=wrap;" parent="89" vertex="1">
          <mxGeometry y="30" width="180" height="30" as="geometry" />
        </mxCell>
        <mxCell id="92" style="vsdxID=79;fillColor=none;gradientColor=none;shape=stencil(UzV2Ls5ILEhVNTIoLinKz04tz0wpyVA1dlE1MsrMy0gtyiwBslSNXVWNndPyi1LTi/JL81Ig/IJEkEoQKze/DGRCBUSfAUiHkUElMs8NojAnMw9JoaEB2UphfKyKyVaKohDIQPgwLTMnBy5DhsdRFeL1OIa9kIghaDv1ggjFBWi2Axno6QAoBElDxq4A);strokeColor=#000000;spacingTop=-3;spacingBottom=-3;spacingLeft=-3;spacingRight=-3;points=[];labelBackgroundColor=none;rounded=0;html=1;whiteSpace=wrap;" parent="91" vertex="1">
          <mxGeometry width="180" height="30" as="geometry" />
        </mxCell>
        <mxCell id="93" value="&lt;div style=&quot;font-size: 1px&quot;&gt;&lt;font style=&quot;font-size:11.64px;font-family:Helvetica;color:#000000;direction:ltr;letter-spacing:0px;line-height:120%;opacity:1&quot;&gt;&lt;b&gt;PK&lt;/b&gt;&lt;/font&gt;&lt;/div&gt;" style="verticalAlign=middle;align=center;overflow=width;vsdxID=80;fillColor=none;gradientColor=none;shape=stencil(nZJZDsMgDERP43+Kj5Cm94gUUqxSiAjpcvuCrGahFVL4m8HPlkcYsJl0NyqQYgre3dST+qABzyAlWa08hagAW8BmcF5dvZttz37sEpnU3T3ShBf3idQhxXvrLgwashvwJKrRr/8LV6M7MIo14UDGLJWK4HuwGLyMZml+luRfPLhqaWg2MIr8DuIT3xC2Hw==);strokeColor=#000000;spacingTop=-3;spacingBottom=-3;spacingLeft=-3;spacingRight=-3;points=[];labelBackgroundColor=none;rounded=0;html=1;whiteSpace=wrap;" parent="91" vertex="1">
          <mxGeometry width="30" height="30" as="geometry" />
        </mxCell>
        <mxCell id="94" value="&lt;div style=&quot;font-size: 1px&quot;&gt;&lt;font style=&quot;font-size:11.64px;font-family:Helvetica;color:#000000;direction:ltr;letter-spacing:0px;line-height:120%;opacity:1&quot;&gt;&lt;u&gt;&lt;b&gt;ProfileID&lt;/b&gt;&lt;/u&gt;&lt;/font&gt;&lt;/div&gt;" style="verticalAlign=middle;align=left;overflow=width;vsdxID=81;fillColor=none;gradientColor=none;shape=stencil(nZJZDsMgDERP43+Kj5Cm94gUUqxSiAjpcvuCrGahFVL4m8HPlkcYsJl0NyqQYgre3dST+qABzyAlWa08hagAW8BmcF5dvZttz37sEpnU3T3ShBf3idQhxXvrLgwashvwJKrRr/8LV6M7MIo14UDGLJWK4HuwGLyMZml+luRfPLhqaWg2MIr8DuIT3xC2Hw==);strokeColor=#000000;spacingTop=-3;spacingBottom=-3;spacingLeft=-3;spacingRight=-3;points=[];labelBackgroundColor=none;rounded=0;html=1;whiteSpace=wrap;" parent="91" vertex="1">
          <mxGeometry x="30" width="150" height="30" as="geometry" />
        </mxCell>
        <mxCell id="95" style="vsdxID=8210000;fillColor=none;gradientColor=none;strokeColor=none;spacingTop=-3;spacingBottom=-3;spacingLeft=-3;spacingRight=-3;points=[];labelBackgroundColor=none;rounded=0;html=1;whiteSpace=wrap;" parent="89" vertex="1">
          <mxGeometry y="60" width="180" height="30" as="geometry" />
        </mxCell>
        <mxCell id="96" value="&lt;div style=&quot;font-size: 1px&quot;&gt;&lt;font style=&quot;font-size:11.64px;font-family:Helvetica;color:#000000;direction:ltr;letter-spacing:0px;line-height:120%;opacity:1&quot;&gt;FK&lt;/font&gt;&lt;/div&gt;" style="verticalAlign=middle;align=center;overflow=width;vsdxID=83;fillColor=none;gradientColor=none;shape=stencil(nZJZDsMgDERP43+Kj5Cm94gUUqxSiAjpcvuCrGahFVL4m8HPlkcYsJl0NyqQYgre3dST+qABzyAlWa08hagAW8BmcF5dvZttz37sEpnU3T3ShBf3idQhxXvrLgwashvwJKrRr/8LV6M7MIo14UDGLJWK4HuwGLyMZml+luRfPLhqaWg2MIr8DuIT3xC2Hw==);strokeColor=#000000;spacingTop=-3;spacingBottom=-3;spacingLeft=-3;spacingRight=-3;points=[];labelBackgroundColor=none;rounded=0;html=1;whiteSpace=wrap;" parent="95" vertex="1">
          <mxGeometry width="30" height="30" as="geometry" />
        </mxCell>
        <mxCell id="97" value="&lt;div style=&quot;font-size: 1px&quot;&gt;&lt;font style=&quot;font-size:11.64px;font-family:Helvetica;color:#000000;direction:ltr;letter-spacing:0px;line-height:120%;opacity:1&quot;&gt;UserID&lt;/font&gt;&lt;/div&gt;" style="verticalAlign=middle;align=left;overflow=width;vsdxID=84;fillColor=none;gradientColor=none;shape=stencil(nZJZDsMgDERP43+Kj5Cm94gUUqxSiAjpcvuCrGahFVL4m8HPlkcYsJl0NyqQYgre3dST+qABzyAlWa08hagAW8BmcF5dvZttz37sEpnU3T3ShBf3idQhxXvrLgwashvwJKrRr/8LV6M7MIo14UDGLJWK4HuwGLyMZml+luRfPLhqaWg2MIr8DuIT3xC2Hw==);strokeColor=#000000;spacingTop=-3;spacingBottom=-3;spacingLeft=-3;spacingRight=-3;points=[];labelBackgroundColor=none;rounded=0;html=1;whiteSpace=wrap;" parent="95" vertex="1">
          <mxGeometry x="30" width="150" height="30" as="geometry" />
        </mxCell>
        <mxCell id="98" style="vsdxID=8510000;fillColor=none;gradientColor=none;strokeColor=none;spacingTop=-3;spacingBottom=-3;spacingLeft=-3;spacingRight=-3;points=[];labelBackgroundColor=none;rounded=0;html=1;whiteSpace=wrap;" parent="89" vertex="1">
          <mxGeometry y="90" width="180" height="30" as="geometry" />
        </mxCell>
        <mxCell id="99" style="vsdxID=86;fillColor=none;gradientColor=none;shape=stencil(nZJZDsMgDERP43+Kj5Cm94gUUqxSiAjpcvuCrGahFVL4m8HPlkcYsJl0NyqQYgre3dST+qABzyAlWa08hagAW8BmcF5dvZttz37sEpnU3T3ShBf3idQhxXvrLgwashvwJKrRr/8LV6M7MIo14UDGLJWK4HuwGLyMZml+luRfPLhqaWg2MIr8DuIT3xC2Hw==);strokeColor=#000000;spacingTop=-3;spacingBottom=-3;spacingLeft=-3;spacingRight=-3;points=[];labelBackgroundColor=none;rounded=0;html=1;whiteSpace=wrap;" parent="98" vertex="1">
          <mxGeometry width="30" height="30" as="geometry" />
        </mxCell>
        <mxCell id="100" value="&lt;div style=&quot;font-size: 1px&quot;&gt;&lt;font style=&quot;font-size:11.64px;font-family:Helvetica;color:#000000;direction:ltr;letter-spacing:0px;line-height:120%;opacity:1&quot;&gt;ProfileName&lt;/font&gt;&lt;/div&gt;" style="verticalAlign=middle;align=left;overflow=width;vsdxID=87;fillColor=none;gradientColor=none;shape=stencil(nZJZDsMgDERP43+Kj5Cm94gUUqxSiAjpcvuCrGahFVL4m8HPlkcYsJl0NyqQYgre3dST+qABzyAlWa08hagAW8BmcF5dvZttz37sEpnU3T3ShBf3idQhxXvrLgwashvwJKrRr/8LV6M7MIo14UDGLJWK4HuwGLyMZml+luRfPLhqaWg2MIr8DuIT3xC2Hw==);strokeColor=#000000;spacingTop=-3;spacingBottom=-3;spacingLeft=-3;spacingRight=-3;points=[];labelBackgroundColor=none;rounded=0;html=1;whiteSpace=wrap;" parent="98" vertex="1">
          <mxGeometry x="30" width="150" height="30" as="geometry" />
        </mxCell>
        <UserObject label="" tags="Background" id="101">
          <mxCell style="vsdxID=9710000;fillColor=none;gradientColor=none;strokeColor=none;spacingTop=-3;spacingBottom=-3;spacingLeft=-3;spacingRight=-3;points=[];labelBackgroundColor=none;rounded=0;html=1;whiteSpace=wrap;" parent="1" vertex="1">
            <mxGeometry x="780" y="1590" width="180" height="90" as="geometry" />
          </mxCell>
        </UserObject>
        <mxCell id="102" value="&lt;div style=&quot;&quot;&gt;&lt;font style=&quot;font-family: Helvetica; direction: ltr; letter-spacing: 0px; line-height: 120%; opacity: 1; font-size: 20px; color: rgb(255, 255, 255);&quot;&gt;&lt;b style=&quot;&quot;&gt;Watchlist&lt;/b&gt;&lt;/font&gt;&lt;/div&gt;" style="verticalAlign=top;align=center;overflow=width;vsdxID=97;fillColor=#e51400;shape=stencil(tVJbDsIgEDzN/jbIJvUAtd6jSakQERqKr9sLbrQR0qRo/JvdndnMPgCbSXajAM4m7+xRXFXvJeAOOFdGCqd8QIAtYDNYJw7Onk1P8dhFZkQne4kdbqRjUcHZnSLECvGZ2RNZK7NIZsvEDfuamlkIYDY/KK1p9nf9D5O9PK0yXETObPzgubD3XF7ZPxfUdVVvSwTJbj5OmZwxgPRnQ4r+HdsH);strokeColor=#B20000;spacingTop=-3;spacingBottom=-3;spacingLeft=-3;spacingRight=-3;points=[];labelBackgroundColor=none;rounded=0;html=1;whiteSpace=wrap;fontColor=#ffffff;" parent="101" vertex="1">
          <mxGeometry width="180" height="90" as="geometry" />
        </mxCell>
        <mxCell id="103" style="vsdxID=9110000;fillColor=none;gradientColor=none;strokeColor=none;spacingTop=-3;spacingBottom=-3;spacingLeft=-3;spacingRight=-3;points=[];labelBackgroundColor=none;rounded=0;html=1;whiteSpace=wrap;" parent="101" vertex="1">
          <mxGeometry y="30" width="180" height="30" as="geometry" />
        </mxCell>
        <mxCell id="104" value="&lt;div style=&quot;font-size: 1px&quot;&gt;&lt;font style=&quot;font-size:11.64px;font-family:Helvetica;color:#000000;direction:ltr;letter-spacing:0px;line-height:120%;opacity:1&quot;&gt;&lt;b&gt;PK,FK1&lt;/b&gt;&lt;/font&gt;&lt;/div&gt;" style="verticalAlign=middle;align=center;overflow=width;vsdxID=98;fillColor=none;gradientColor=none;shape=stencil(nZJZDsMgDERP43+Kj5Cm94gUUqxSiAjpcvuCrGahFVL4m8HPlkcYsJl0NyqQYgre3dST+qABzyAlWa08hagAW8BmcF5dvZttz37sEpnU3T3ShBf3idQhxXvrLgwashvwJKrRr/8LV6M7MIo14UDGLJWK4HuwGLyMZml+luRfPLhqaWg2MIr8DuIT3xC2Hw==);strokeColor=#000000;spacingTop=-3;spacingBottom=-3;spacingLeft=-3;spacingRight=-3;points=[];labelBackgroundColor=none;rounded=0;html=1;whiteSpace=wrap;" parent="103" vertex="1">
          <mxGeometry width="60" height="30" as="geometry" />
        </mxCell>
        <mxCell id="105" value="&lt;div style=&quot;font-size: 1px&quot;&gt;&lt;font style=&quot;font-size:11.64px;font-family:Helvetica;color:#000000;direction:ltr;letter-spacing:0px;line-height:120%;opacity:1&quot;&gt;&lt;u&gt;&lt;b&gt;ProfileID&lt;/b&gt;&lt;/u&gt;&lt;/font&gt;&lt;/div&gt;" style="verticalAlign=middle;align=left;overflow=width;vsdxID=99;fillColor=none;gradientColor=none;shape=stencil(nZJZDsMgDERP43+Kj5Cm94gUUqxSiAjpcvuCrGahFVL4m8HPlkcYsJl0NyqQYgre3dST+qABzyAlWa08hagAW8BmcF5dvZttz37sEpnU3T3ShBf3idQhxXvrLgwashvwJKrRr/8LV6M7MIo14UDGLJWK4HuwGLyMZml+luRfPLhqaWg2MIr8DuIT3xC2Hw==);strokeColor=#000000;spacingTop=-3;spacingBottom=-3;spacingLeft=-3;spacingRight=-3;points=[];labelBackgroundColor=none;rounded=0;html=1;whiteSpace=wrap;" parent="103" vertex="1">
          <mxGeometry x="60" width="120" height="30" as="geometry" />
        </mxCell>
        <mxCell id="106" style="vsdxID=9410000;fillColor=none;gradientColor=none;strokeColor=none;spacingTop=-3;spacingBottom=-3;spacingLeft=-3;spacingRight=-3;points=[];labelBackgroundColor=none;rounded=0;html=1;whiteSpace=wrap;" parent="101" vertex="1">
          <mxGeometry y="60" width="180" height="30" as="geometry" />
        </mxCell>
        <mxCell id="107" style="vsdxID=94;fillColor=none;gradientColor=none;shape=stencil(UzV2Ls5ILEhVNTIoLinKz04tz0wpyVA1dlE1MsrMy0gtyiwBslSNXVWNndPyi1LTi/JL81Ig/IJEkEoQKze/DGRCBUSfAUiHkUElMs8NojAnMw9JoaEB2UphfKyKyVaKohDIQPgwLTMnBy5DhsdRFeL1OIa9kIghaDv1ggjFBWi2Axno6QAoBElDxq4A);strokeColor=#000000;spacingTop=-3;spacingBottom=-3;spacingLeft=-3;spacingRight=-3;points=[];labelBackgroundColor=none;rounded=0;html=1;whiteSpace=wrap;" parent="106" vertex="1">
          <mxGeometry width="180" height="30" as="geometry" />
        </mxCell>
        <mxCell id="108" value="&lt;div style=&quot;font-size: 1px&quot;&gt;&lt;font style=&quot;font-size:11.64px;font-family:Helvetica;color:#000000;direction:ltr;letter-spacing:0px;line-height:120%;opacity:1&quot;&gt;&lt;b&gt;PK,FK2&lt;/b&gt;&lt;/font&gt;&lt;/div&gt;" style="verticalAlign=middle;align=center;overflow=width;vsdxID=100;fillColor=none;gradientColor=none;shape=stencil(nZJZDsMgDERP43+Kj5Cm94gUUqxSiAjpcvuCrGahFVL4m8HPlkcYsJl0NyqQYgre3dST+qABzyAlWa08hagAW8BmcF5dvZttz37sEpnU3T3ShBf3idQhxXvrLgwashvwJKrRr/8LV6M7MIo14UDGLJWK4HuwGLyMZml+luRfPLhqaWg2MIr8DuIT3xC2Hw==);strokeColor=#000000;spacingTop=-3;spacingBottom=-3;spacingLeft=-3;spacingRight=-3;points=[];labelBackgroundColor=none;rounded=0;html=1;whiteSpace=wrap;" parent="106" vertex="1">
          <mxGeometry width="60" height="30" as="geometry" />
        </mxCell>
        <mxCell id="109" value="&lt;div style=&quot;font-size: 1px&quot;&gt;&lt;font style=&quot;font-size:11.64px;font-family:Helvetica;color:#000000;direction:ltr;letter-spacing:0px;line-height:120%;opacity:1&quot;&gt;&lt;u&gt;&lt;b&gt;MovieID&lt;/b&gt;&lt;/u&gt;&lt;/font&gt;&lt;/div&gt;" style="verticalAlign=middle;align=left;overflow=width;vsdxID=101;fillColor=none;gradientColor=none;shape=stencil(nZJZDsMgDERP43+Kj5Cm94gUUqxSiAjpcvuCrGahFVL4m8HPlkcYsJl0NyqQYgre3dST+qABzyAlWa08hagAW8BmcF5dvZttz37sEpnU3T3ShBf3idQhxXvrLgwashvwJKrRr/8LV6M7MIo14UDGLJWK4HuwGLyMZml+luRfPLhqaWg2MIr8DuIT3xC2Hw==);strokeColor=#000000;spacingTop=-3;spacingBottom=-3;spacingLeft=-3;spacingRight=-3;points=[];labelBackgroundColor=none;rounded=0;html=1;whiteSpace=wrap;" parent="106" vertex="1">
          <mxGeometry x="60" width="120" height="30" as="geometry" />
        </mxCell>
        <UserObject label="" tags="Background" id="110">
          <mxCell style="vsdxID=10310000;fillColor=none;gradientColor=none;strokeColor=none;spacingTop=-3;spacingBottom=-3;spacingLeft=-3;spacingRight=-3;points=[];labelBackgroundColor=none;rounded=0;html=1;whiteSpace=wrap;" parent="1" vertex="1">
            <mxGeometry x="1150" y="1170" width="180" height="180" as="geometry" />
          </mxCell>
        </UserObject>
        <mxCell id="111" value="&lt;div style=&quot;&quot;&gt;&lt;font style=&quot;font-family: Helvetica; direction: ltr; letter-spacing: 0px; line-height: 120%; opacity: 1; font-size: 20px; color: rgb(255, 255, 255);&quot;&gt;&lt;b style=&quot;&quot;&gt;Actor&lt;/b&gt;&lt;/font&gt;&lt;/div&gt;" style="verticalAlign=top;align=center;overflow=width;vsdxID=103;fillColor=#e51400;shape=stencil(tVPbDsIgDP2avi6MRvR9zv9YMiZEhIXN298LEl2EzAyNb6ftOc0ptIDVIJqeAyXDaM2BX2Q7CsAtUCq14FaODgHWgFVnLN9bc9JtiPvGMz06mrPvcA064hWU3EJUsoKtH5ldICupZ8lknliSr6mJBQcm851UKsz+qv9hsqenZYazyLGNHzxn9p7KS/snAsQCMUew+vQ0CZvl+tnk+on+6m21orVyIL4hlwr3h/Ud);strokeColor=#B20000;spacingTop=-3;spacingBottom=-3;spacingLeft=-3;spacingRight=-3;points=[];labelBackgroundColor=none;rounded=0;html=1;whiteSpace=wrap;fontColor=#ffffff;" parent="110" vertex="1">
          <mxGeometry width="180" height="180" as="geometry" />
        </mxCell>
        <mxCell id="112" style="vsdxID=10410000;fillColor=none;gradientColor=none;strokeColor=none;spacingTop=-3;spacingBottom=-3;spacingLeft=-3;spacingRight=-3;points=[];labelBackgroundColor=none;rounded=0;html=1;whiteSpace=wrap;" parent="110" vertex="1">
          <mxGeometry y="30" width="180" height="30" as="geometry" />
        </mxCell>
        <mxCell id="113" style="vsdxID=104;fillColor=none;gradientColor=none;shape=stencil(UzV2Ls5ILEhVNTIoLinKz04tz0wpyVA1dlE1MsrMy0gtyiwBslSNXVWNndPyi1LTi/JL81Ig/IJEkEoQKze/DGRCBUSfAUiHkUElMs8NojAnMw9JoaEB2UphfKyKyVaKohDIQPgwLTMnBy5DhsdRFeL1OIa9kIghaDv1ggjFBWi2Axno6QAoBElDxq4A);strokeColor=#000000;spacingTop=-3;spacingBottom=-3;spacingLeft=-3;spacingRight=-3;points=[];labelBackgroundColor=none;rounded=0;html=1;whiteSpace=wrap;" parent="112" vertex="1">
          <mxGeometry width="180" height="30" as="geometry" />
        </mxCell>
        <mxCell id="114" value="&lt;div style=&quot;font-size: 1px&quot;&gt;&lt;font style=&quot;font-size:11.64px;font-family:Helvetica;color:#000000;direction:ltr;letter-spacing:0px;line-height:120%;opacity:1&quot;&gt;&lt;b&gt;PK&lt;/b&gt;&lt;/font&gt;&lt;/div&gt;" style="verticalAlign=middle;align=center;overflow=width;vsdxID=105;fillColor=none;gradientColor=none;shape=stencil(nZJZDsMgDERP43+Kj5Cm94gUUqxSiAjpcvuCrGahFVL4m8HPlkcYsJl0NyqQYgre3dST+qABzyAlWa08hagAW8BmcF5dvZttz37sEpnU3T3ShBf3idQhxXvrLgwashvwJKrRr/8LV6M7MIo14UDGLJWK4HuwGLyMZml+luRfPLhqaWg2MIr8DuIT3xC2Hw==);strokeColor=#000000;spacingTop=-3;spacingBottom=-3;spacingLeft=-3;spacingRight=-3;points=[];labelBackgroundColor=none;rounded=0;html=1;whiteSpace=wrap;" parent="112" vertex="1">
          <mxGeometry width="30" height="30" as="geometry" />
        </mxCell>
        <mxCell id="115" value="&lt;div style=&quot;font-size: 1px&quot;&gt;&lt;font style=&quot;font-size:11.64px;font-family:Helvetica;color:#000000;direction:ltr;letter-spacing:0px;line-height:120%;opacity:1&quot;&gt;&lt;u&gt;&lt;b&gt;ActorID&lt;/b&gt;&lt;/u&gt;&lt;/font&gt;&lt;/div&gt;" style="verticalAlign=middle;align=left;overflow=width;vsdxID=106;fillColor=none;gradientColor=none;shape=stencil(nZJZDsMgDERP43+Kj5Cm94gUUqxSiAjpcvuCrGahFVL4m8HPlkcYsJl0NyqQYgre3dST+qABzyAlWa08hagAW8BmcF5dvZttz37sEpnU3T3ShBf3idQhxXvrLgwashvwJKrRr/8LV6M7MIo14UDGLJWK4HuwGLyMZml+luRfPLhqaWg2MIr8DuIT3xC2Hw==);strokeColor=#000000;spacingTop=-3;spacingBottom=-3;spacingLeft=-3;spacingRight=-3;points=[];labelBackgroundColor=none;rounded=0;html=1;whiteSpace=wrap;" parent="112" vertex="1">
          <mxGeometry x="30" width="150" height="30" as="geometry" />
        </mxCell>
        <mxCell id="116" style="vsdxID=10710000;fillColor=none;gradientColor=none;strokeColor=none;spacingTop=-3;spacingBottom=-3;spacingLeft=-3;spacingRight=-3;points=[];labelBackgroundColor=none;rounded=0;html=1;whiteSpace=wrap;" parent="110" vertex="1">
          <mxGeometry y="60" width="180" height="30" as="geometry" />
        </mxCell>
        <mxCell id="117" style="vsdxID=108;fillColor=none;gradientColor=none;shape=stencil(nZJZDsMgDERP43+Kj5Cm94gUUqxSiAjpcvuCrGahFVL4m8HPlkcYsJl0NyqQYgre3dST+qABzyAlWa08hagAW8BmcF5dvZttz37sEpnU3T3ShBf3idQhxXvrLgwashvwJKrRr/8LV6M7MIo14UDGLJWK4HuwGLyMZml+luRfPLhqaWg2MIr8DuIT3xC2Hw==);strokeColor=#000000;spacingTop=-3;spacingBottom=-3;spacingLeft=-3;spacingRight=-3;points=[];labelBackgroundColor=none;rounded=0;html=1;whiteSpace=wrap;" parent="116" vertex="1">
          <mxGeometry width="30" height="30" as="geometry" />
        </mxCell>
        <mxCell id="118" value="&lt;div style=&quot;font-size: 1px&quot;&gt;&lt;font style=&quot;font-size:11.64px;font-family:Helvetica;color:#000000;direction:ltr;letter-spacing:0px;line-height:120%;opacity:1&quot;&gt;FirstName&lt;/font&gt;&lt;/div&gt;" style="verticalAlign=middle;align=left;overflow=width;vsdxID=109;fillColor=none;gradientColor=none;shape=stencil(nZJZDsMgDERP43+Kj5Cm94gUUqxSiAjpcvuCrGahFVL4m8HPlkcYsJl0NyqQYgre3dST+qABzyAlWa08hagAW8BmcF5dvZttz37sEpnU3T3ShBf3idQhxXvrLgwashvwJKrRr/8LV6M7MIo14UDGLJWK4HuwGLyMZml+luRfPLhqaWg2MIr8DuIT3xC2Hw==);strokeColor=#000000;spacingTop=-3;spacingBottom=-3;spacingLeft=-3;spacingRight=-3;points=[];labelBackgroundColor=none;rounded=0;html=1;whiteSpace=wrap;" parent="116" vertex="1">
          <mxGeometry x="30" width="150" height="30" as="geometry" />
        </mxCell>
        <mxCell id="119" style="vsdxID=11010000;fillColor=none;gradientColor=none;strokeColor=none;spacingTop=-3;spacingBottom=-3;spacingLeft=-3;spacingRight=-3;points=[];labelBackgroundColor=none;rounded=0;html=1;whiteSpace=wrap;" parent="110" vertex="1">
          <mxGeometry y="90" width="180" height="30" as="geometry" />
        </mxCell>
        <mxCell id="120" style="vsdxID=111;fillColor=none;gradientColor=none;shape=stencil(nZJZDsMgDERP43+Kj5Cm94gUUqxSiAjpcvuCrGahFVL4m8HPlkcYsJl0NyqQYgre3dST+qABzyAlWa08hagAW8BmcF5dvZttz37sEpnU3T3ShBf3idQhxXvrLgwashvwJKrRr/8LV6M7MIo14UDGLJWK4HuwGLyMZml+luRfPLhqaWg2MIr8DuIT3xC2Hw==);strokeColor=#000000;spacingTop=-3;spacingBottom=-3;spacingLeft=-3;spacingRight=-3;points=[];labelBackgroundColor=none;rounded=0;html=1;whiteSpace=wrap;" parent="119" vertex="1">
          <mxGeometry width="30" height="30" as="geometry" />
        </mxCell>
        <mxCell id="121" value="&lt;div style=&quot;font-size: 1px&quot;&gt;&lt;font style=&quot;font-size:11.64px;font-family:Helvetica;color:#000000;direction:ltr;letter-spacing:0px;line-height:120%;opacity:1&quot;&gt;LastName&lt;/font&gt;&lt;/div&gt;" style="verticalAlign=middle;align=left;overflow=width;vsdxID=112;fillColor=none;gradientColor=none;shape=stencil(nZJZDsMgDERP43+Kj5Cm94gUUqxSiAjpcvuCrGahFVL4m8HPlkcYsJl0NyqQYgre3dST+qABzyAlWa08hagAW8BmcF5dvZttz37sEpnU3T3ShBf3idQhxXvrLgwashvwJKrRr/8LV6M7MIo14UDGLJWK4HuwGLyMZml+luRfPLhqaWg2MIr8DuIT3xC2Hw==);strokeColor=#000000;spacingTop=-3;spacingBottom=-3;spacingLeft=-3;spacingRight=-3;points=[];labelBackgroundColor=none;rounded=0;html=1;whiteSpace=wrap;" parent="119" vertex="1">
          <mxGeometry x="30" width="150" height="30" as="geometry" />
        </mxCell>
        <mxCell id="122" style="vsdxID=11310000;fillColor=none;gradientColor=none;strokeColor=none;spacingTop=-3;spacingBottom=-3;spacingLeft=-3;spacingRight=-3;points=[];labelBackgroundColor=none;rounded=0;html=1;whiteSpace=wrap;" parent="110" vertex="1">
          <mxGeometry y="120" width="180" height="30" as="geometry" />
        </mxCell>
        <mxCell id="123" style="vsdxID=114;fillColor=none;gradientColor=none;shape=stencil(nZJZDsMgDERP43+Kj5Cm94gUUqxSiAjpcvuCrGahFVL4m8HPlkcYsJl0NyqQYgre3dST+qABzyAlWa08hagAW8BmcF5dvZttz37sEpnU3T3ShBf3idQhxXvrLgwashvwJKrRr/8LV6M7MIo14UDGLJWK4HuwGLyMZml+luRfPLhqaWg2MIr8DuIT3xC2Hw==);strokeColor=#000000;spacingTop=-3;spacingBottom=-3;spacingLeft=-3;spacingRight=-3;points=[];labelBackgroundColor=none;rounded=0;html=1;whiteSpace=wrap;" parent="122" vertex="1">
          <mxGeometry width="30" height="30" as="geometry" />
        </mxCell>
        <mxCell id="124" value="&lt;div style=&quot;font-size: 1px&quot;&gt;&lt;font style=&quot;font-size:11.64px;font-family:Helvetica;color:#000000;direction:ltr;letter-spacing:0px;line-height:120%;opacity:1&quot;&gt;Gender&lt;/font&gt;&lt;/div&gt;" style="verticalAlign=middle;align=left;overflow=width;vsdxID=115;fillColor=none;gradientColor=none;shape=stencil(nZJZDsMgDERP43+Kj5Cm94gUUqxSiAjpcvuCrGahFVL4m8HPlkcYsJl0NyqQYgre3dST+qABzyAlWa08hagAW8BmcF5dvZttz37sEpnU3T3ShBf3idQhxXvrLgwashvwJKrRr/8LV6M7MIo14UDGLJWK4HuwGLyMZml+luRfPLhqaWg2MIr8DuIT3xC2Hw==);strokeColor=#000000;spacingTop=-3;spacingBottom=-3;spacingLeft=-3;spacingRight=-3;points=[];labelBackgroundColor=none;rounded=0;html=1;whiteSpace=wrap;" parent="122" vertex="1">
          <mxGeometry x="30" width="150" height="30" as="geometry" />
        </mxCell>
        <mxCell id="125" style="vsdxID=11610000;fillColor=none;gradientColor=none;strokeColor=none;spacingTop=-3;spacingBottom=-3;spacingLeft=-3;spacingRight=-3;points=[];labelBackgroundColor=none;rounded=0;html=1;whiteSpace=wrap;" parent="110" vertex="1">
          <mxGeometry y="150" width="180" height="30" as="geometry" />
        </mxCell>
        <mxCell id="126" style="vsdxID=117;fillColor=none;gradientColor=none;shape=stencil(nZJZDsMgDERP43+Kj5Cm94gUUqxSiAjpcvuCrGahFVL4m8HPlkcYsJl0NyqQYgre3dST+qABzyAlWa08hagAW8BmcF5dvZttz37sEpnU3T3ShBf3idQhxXvrLgwashvwJKrRr/8LV6M7MIo14UDGLJWK4HuwGLyMZml+luRfPLhqaWg2MIr8DuIT3xC2Hw==);strokeColor=#000000;spacingTop=-3;spacingBottom=-3;spacingLeft=-3;spacingRight=-3;points=[];labelBackgroundColor=none;rounded=0;html=1;whiteSpace=wrap;" parent="125" vertex="1">
          <mxGeometry width="30" height="30" as="geometry" />
        </mxCell>
        <mxCell id="127" value="&lt;div style=&quot;font-size: 1px&quot;&gt;&lt;font style=&quot;font-size:11.64px;font-family:Helvetica;color:#000000;direction:ltr;letter-spacing:0px;line-height:120%;opacity:1&quot;&gt;BirthDate&lt;/font&gt;&lt;/div&gt;" style="verticalAlign=middle;align=left;overflow=width;vsdxID=118;fillColor=none;gradientColor=none;shape=stencil(nZJZDsMgDERP43+Kj5Cm94gUUqxSiAjpcvuCrGahFVL4m8HPlkcYsJl0NyqQYgre3dST+qABzyAlWa08hagAW8BmcF5dvZttz37sEpnU3T3ShBf3idQhxXvrLgwashvwJKrRr/8LV6M7MIo14UDGLJWK4HuwGLyMZml+luRfPLhqaWg2MIr8DuIT3xC2Hw==);strokeColor=#000000;spacingTop=-3;spacingBottom=-3;spacingLeft=-3;spacingRight=-3;points=[];labelBackgroundColor=none;rounded=0;html=1;whiteSpace=wrap;" parent="125" vertex="1">
          <mxGeometry x="30" width="150" height="30" as="geometry" />
        </mxCell>
        <UserObject label="" tags="Background" id="128">
          <mxCell style="vsdxID=11910000;fillColor=none;gradientColor=none;strokeColor=none;spacingTop=-3;spacingBottom=-3;spacingLeft=-3;spacingRight=-3;points=[];labelBackgroundColor=none;rounded=0;html=1;whiteSpace=wrap;align=center;" parent="1" vertex="1">
            <mxGeometry x="760" y="990" width="180" height="90" as="geometry" />
          </mxCell>
        </UserObject>
        <mxCell id="129" value="&lt;div style=&quot;padding-top: 0px;&quot;&gt;&lt;font style=&quot;font-family: Helvetica; direction: ltr; letter-spacing: 0px; line-height: 120%; opacity: 1; font-size: 20px; color: rgb(255, 255, 255);&quot;&gt;&lt;b style=&quot;&quot;&gt;MovieActor&lt;/b&gt;&lt;/font&gt;&lt;/div&gt;" style="verticalAlign=top;align=center;overflow=width;vsdxID=119;fillColor=#e51400;shape=stencil(tVJbDsIgEDzN/jbIJvUAtd6jSakQERqKr9sLbrQR0qRo/JvdndnMPgCbSXajAM4m7+xRXFXvJeAOOFdGCqd8QIAtYDNYJw7Onk1P8dhFZkQne4kdbqRjUcHZnSLECvGZ2RNZK7NIZsvEDfuamlkIYDY/KK1p9nf9D5O9PK0yXETObPzgubD3XF7ZPxfUdVVvSwTJbj5OmZwxgPRnQ4r+HdsH);strokeColor=#B20000;spacingTop=-3;spacingBottom=-3;spacingLeft=-3;spacingRight=-3;points=[];labelBackgroundColor=none;rounded=0;html=1;whiteSpace=wrap;fontColor=#ffffff;" parent="128" vertex="1">
          <mxGeometry width="180" height="90" as="geometry" />
        </mxCell>
        <mxCell id="130" style="vsdxID=12010000;fillColor=none;gradientColor=none;strokeColor=none;spacingTop=-3;spacingBottom=-3;spacingLeft=-3;spacingRight=-3;points=[];labelBackgroundColor=none;rounded=0;html=1;whiteSpace=wrap;" parent="128" vertex="1">
          <mxGeometry y="30" width="180" height="30" as="geometry" />
        </mxCell>
        <mxCell id="131" value="&lt;div style=&quot;font-size: 1px&quot;&gt;&lt;font style=&quot;font-size:11.64px;font-family:Helvetica;color:#000000;direction:ltr;letter-spacing:0px;line-height:120%;opacity:1&quot;&gt;&lt;b&gt;PK,FK1&lt;/b&gt;&lt;/font&gt;&lt;/div&gt;" style="verticalAlign=middle;align=center;overflow=width;vsdxID=121;fillColor=none;gradientColor=none;shape=stencil(nZJZDsMgDERP43+Kj5Cm94gUUqxSiAjpcvuCrGahFVL4m8HPlkcYsJl0NyqQYgre3dST+qABzyAlWa08hagAW8BmcF5dvZttz37sEpnU3T3ShBf3idQhxXvrLgwashvwJKrRr/8LV6M7MIo14UDGLJWK4HuwGLyMZml+luRfPLhqaWg2MIr8DuIT3xC2Hw==);strokeColor=#000000;spacingTop=-3;spacingBottom=-3;spacingLeft=-3;spacingRight=-3;points=[];labelBackgroundColor=none;rounded=0;html=1;whiteSpace=wrap;" parent="130" vertex="1">
          <mxGeometry width="60" height="30" as="geometry" />
        </mxCell>
        <mxCell id="132" value="&lt;div style=&quot;font-size: 1px&quot;&gt;&lt;font style=&quot;font-size:11.64px;font-family:Helvetica;color:#000000;direction:ltr;letter-spacing:0px;line-height:120%;opacity:1&quot;&gt;&lt;u&gt;&lt;b&gt;ActiorID&lt;/b&gt;&lt;/u&gt;&lt;/font&gt;&lt;/div&gt;" style="verticalAlign=middle;align=left;overflow=width;vsdxID=122;fillColor=none;gradientColor=none;shape=stencil(nZJZDsMgDERP43+Kj5Cm94gUUqxSiAjpcvuCrGahFVL4m8HPlkcYsJl0NyqQYgre3dST+qABzyAlWa08hagAW8BmcF5dvZttz37sEpnU3T3ShBf3idQhxXvrLgwashvwJKrRr/8LV6M7MIo14UDGLJWK4HuwGLyMZml+luRfPLhqaWg2MIr8DuIT3xC2Hw==);strokeColor=#000000;spacingTop=-3;spacingBottom=-3;spacingLeft=-3;spacingRight=-3;points=[];labelBackgroundColor=none;rounded=0;html=1;whiteSpace=wrap;" parent="130" vertex="1">
          <mxGeometry x="60" width="120" height="30" as="geometry" />
        </mxCell>
        <mxCell id="133" style="vsdxID=12310000;fillColor=none;gradientColor=none;strokeColor=none;spacingTop=-3;spacingBottom=-3;spacingLeft=-3;spacingRight=-3;points=[];labelBackgroundColor=none;rounded=0;html=1;whiteSpace=wrap;" parent="128" vertex="1">
          <mxGeometry y="60" width="180" height="30" as="geometry" />
        </mxCell>
        <mxCell id="134" style="vsdxID=123;fillColor=none;gradientColor=none;shape=stencil(UzV2Ls5ILEhVNTIoLinKz04tz0wpyVA1dlE1MsrMy0gtyiwBslSNXVWNndPyi1LTi/JL81Ig/IJEkEoQKze/DGRCBUSfAUiHkUElMs8NojAnMw9JoaEB2UphfKyKyVaKohDIQPgwLTMnBy5DhsdRFeL1OIa9kIghaDv1ggjFBWi2Axno6QAoBElDxq4A);strokeColor=#000000;spacingTop=-3;spacingBottom=-3;spacingLeft=-3;spacingRight=-3;points=[];labelBackgroundColor=none;rounded=0;html=1;whiteSpace=wrap;" parent="133" vertex="1">
          <mxGeometry width="180" height="30" as="geometry" />
        </mxCell>
        <mxCell id="135" value="&lt;div style=&quot;font-size: 1px&quot;&gt;&lt;font style=&quot;font-size:11.64px;font-family:Helvetica;color:#000000;direction:ltr;letter-spacing:0px;line-height:120%;opacity:1&quot;&gt;&lt;b&gt;PK,FK2&lt;/b&gt;&lt;/font&gt;&lt;/div&gt;" style="verticalAlign=middle;align=center;overflow=width;vsdxID=124;fillColor=none;gradientColor=none;shape=stencil(nZJZDsMgDERP43+Kj5Cm94gUUqxSiAjpcvuCrGahFVL4m8HPlkcYsJl0NyqQYgre3dST+qABzyAlWa08hagAW8BmcF5dvZttz37sEpnU3T3ShBf3idQhxXvrLgwashvwJKrRr/8LV6M7MIo14UDGLJWK4HuwGLyMZml+luRfPLhqaWg2MIr8DuIT3xC2Hw==);strokeColor=#000000;spacingTop=-3;spacingBottom=-3;spacingLeft=-3;spacingRight=-3;points=[];labelBackgroundColor=none;rounded=0;html=1;whiteSpace=wrap;" parent="133" vertex="1">
          <mxGeometry width="60" height="30" as="geometry" />
        </mxCell>
        <mxCell id="136" value="&lt;div style=&quot;font-size: 1px&quot;&gt;&lt;font style=&quot;font-size:11.64px;font-family:Helvetica;color:#000000;direction:ltr;letter-spacing:0px;line-height:120%;opacity:1&quot;&gt;&lt;u&gt;&lt;b&gt;MovieID&lt;/b&gt;&lt;/u&gt;&lt;/font&gt;&lt;/div&gt;" style="verticalAlign=middle;align=left;overflow=width;vsdxID=125;fillColor=none;gradientColor=none;shape=stencil(nZJZDsMgDERP43+Kj5Cm94gUUqxSiAjpcvuCrGahFVL4m8HPlkcYsJl0NyqQYgre3dST+qABzyAlWa08hagAW8BmcF5dvZttz37sEpnU3T3ShBf3idQhxXvrLgwashvwJKrRr/8LV6M7MIo14UDGLJWK4HuwGLyMZml+luRfPLhqaWg2MIr8DuIT3xC2Hw==);strokeColor=#000000;spacingTop=-3;spacingBottom=-3;spacingLeft=-3;spacingRight=-3;points=[];labelBackgroundColor=none;rounded=0;html=1;whiteSpace=wrap;" parent="133" vertex="1">
          <mxGeometry x="60" width="120" height="30" as="geometry" />
        </mxCell>
        <UserObject label="" tags="Background" id="137">
          <mxCell style="vsdxID=12810000;fillColor=none;gradientColor=none;strokeColor=none;spacingTop=-3;spacingBottom=-3;spacingLeft=-3;spacingRight=-3;points=[];labelBackgroundColor=none;rounded=0;html=1;whiteSpace=wrap;" parent="1" vertex="1">
            <mxGeometry x="1150" y="1780" width="180" height="146" as="geometry" />
          </mxCell>
        </UserObject>
        <mxCell id="138" value="&lt;div style=&quot;&quot;&gt;&lt;font style=&quot;font-family: Helvetica; direction: ltr; letter-spacing: 0px; line-height: 120%; opacity: 1; font-size: 20px; color: rgb(255, 255, 255);&quot;&gt;&lt;b style=&quot;&quot;&gt;Subscription&lt;/b&gt;&lt;/font&gt;&lt;/div&gt;" style="verticalAlign=top;align=center;overflow=width;vsdxID=128;fillColor=#e51400;shape=stencil(UzV2Ls5ILEhVNTIoLinKz04tz0wpyVA1dlE1MsrMy0gtyiwBslSNXVWNndPyi1LTi/JL81Ig/IJEkEoQKze/DGRCBUSfAUiHkUElhGdormdhCBZxgyjOyczDqdgAt0JDA7KVYjgByEA4Pi0zJwfid7g8DXwGcxNxDiZJMbozKHAzaSGHFmpABnoSAQpBkpexKwA=);strokeColor=#B20000;spacingTop=-3;spacingBottom=-3;spacingLeft=-3;spacingRight=-3;points=[];labelBackgroundColor=none;rounded=0;html=1;whiteSpace=wrap;fontColor=#ffffff;" parent="137" vertex="1">
          <mxGeometry width="180" height="146" as="geometry" />
        </mxCell>
        <mxCell id="139" style="vsdxID=12910000;fillColor=none;gradientColor=none;strokeColor=none;spacingTop=-3;spacingBottom=-3;spacingLeft=-3;spacingRight=-3;points=[];labelBackgroundColor=none;rounded=0;html=1;whiteSpace=wrap;" parent="137" vertex="1">
          <mxGeometry y="26" width="180" height="30" as="geometry" />
        </mxCell>
        <mxCell id="141" style="vsdxID=13010000;fillColor=none;gradientColor=none;strokeColor=none;spacingTop=-3;spacingBottom=-3;spacingLeft=-3;spacingRight=-3;points=[];labelBackgroundColor=none;rounded=0;html=1;whiteSpace=wrap;" parent="139" vertex="1">
          <mxGeometry width="180" height="30" as="geometry" />
        </mxCell>
        <mxCell id="142" style="vsdxID=130;fillColor=none;gradientColor=none;shape=stencil(UzV2Ls5ILEhVNTIoLinKz04tz0wpyVA1dlE1MsrMy0gtyiwBslSNXVWNndPyi1LTi/JL81Ig/IJEkEoQKze/DGRCBUSfAUiHkUElMs8NojAnMw9JoaEB2UphfKyKyVaKohDIQPgwLTMnBy5DhsdRFeL1OIa9kIghaDv1ggjFBWi2Axno6QAoBElDxq4A);strokeColor=#000000;spacingTop=-3;spacingBottom=-3;spacingLeft=-3;spacingRight=-3;points=[];labelBackgroundColor=none;rounded=0;html=1;whiteSpace=wrap;" parent="141" vertex="1">
          <mxGeometry width="180" height="30" as="geometry" />
        </mxCell>
        <mxCell id="143" value="&lt;div style=&quot;font-size: 1px&quot;&gt;&lt;font style=&quot;font-size:11.64px;font-family:Helvetica;color:#000000;direction:ltr;letter-spacing:0px;line-height:120%;opacity:1&quot;&gt;&lt;b&gt;PK&lt;/b&gt;&lt;/font&gt;&lt;/div&gt;" style="verticalAlign=middle;align=center;overflow=width;vsdxID=131;fillColor=none;gradientColor=none;shape=stencil(nZJZDsMgDERP43+Kj5Cm94gUUqxSiAjpcvuCrGahFVL4m8HPlkcYsJl0NyqQYgre3dST+qABzyAlWa08hagAW8BmcF5dvZttz37sEpnU3T3ShBf3idQhxXvrLgwashvwJKrRr/8LV6M7MIo14UDGLJWK4HuwGLyMZml+luRfPLhqaWg2MIr8DuIT3xC2Hw==);strokeColor=#000000;spacingTop=-3;spacingBottom=-3;spacingLeft=-3;spacingRight=-3;points=[];labelBackgroundColor=none;rounded=0;html=1;whiteSpace=wrap;" parent="141" vertex="1">
          <mxGeometry width="30" height="30" as="geometry" />
        </mxCell>
        <mxCell id="144" value="&lt;div style=&quot;font-size: 1px&quot;&gt;&lt;font style=&quot;font-size:11.64px;font-family:Helvetica;color:#000000;direction:ltr;letter-spacing:0px;line-height:120%;opacity:1&quot;&gt;&lt;u&gt;&lt;b&gt;SubscriptionID&lt;/b&gt;&lt;/u&gt;&lt;/font&gt;&lt;/div&gt;" style="verticalAlign=middle;align=left;overflow=width;vsdxID=132;fillColor=none;gradientColor=none;shape=stencil(nZJZDsMgDERP43+Kj5Cm94gUUqxSiAjpcvuCrGahFVL4m8HPlkcYsJl0NyqQYgre3dST+qABzyAlWa08hagAW8BmcF5dvZttz37sEpnU3T3ShBf3idQhxXvrLgwashvwJKrRr/8LV6M7MIo14UDGLJWK4HuwGLyMZml+luRfPLhqaWg2MIr8DuIT3xC2Hw==);strokeColor=#000000;spacingTop=-3;spacingBottom=-3;spacingLeft=-3;spacingRight=-3;points=[];labelBackgroundColor=none;rounded=0;html=1;whiteSpace=wrap;" parent="141" vertex="1">
          <mxGeometry x="30" width="150" height="30" as="geometry" />
        </mxCell>
        <mxCell id="145" value="&lt;div style=&quot;font-size: 1px&quot;&gt;&lt;font style=&quot;font-size:11.64px;font-family:Helvetica;color:#000000;direction:ltr;letter-spacing:0px;line-height:120%;opacity:1&quot;&gt;Name&lt;/font&gt;&lt;/div&gt;" style="verticalAlign=middle;align=left;overflow=width;vsdxID=133;fillColor=none;gradientColor=none;shape=stencil(nZBRDoQgDERP03+WHsHFe5iISyOCQdT19kIaIxq//Jtp3zTpAFaTaUYNUkwx+F6v1EYD+AUpyRkdKCYFqACrzgf9C352LfuxyWRWg1/yhT/nRE5IsZWuZtCSK8CPeI0e/hF+jV7AJM4PO7KWCyr390bSiNtEtQM=);strokeColor=none;spacingTop=-3;spacingBottom=-3;spacingLeft=-3;spacingRight=-3;points=[];labelBackgroundColor=none;rounded=0;html=1;whiteSpace=wrap;" parent="137" vertex="1">
          <mxGeometry y="56" width="180" height="30" as="geometry" />
        </mxCell>
        <mxCell id="146" value="&lt;div style=&quot;font-size: 1px&quot;&gt;&lt;font style=&quot;font-size:11.64px;font-family:Helvetica;color:#000000;direction:ltr;letter-spacing:0px;line-height:120%;opacity:1&quot;&gt;Price&lt;/font&gt;&lt;/div&gt;" style="verticalAlign=middle;align=left;overflow=width;vsdxID=134;fillColor=none;gradientColor=none;shape=stencil(nZBRDoQgDERP03+WHsHFe5iISyOCQdT19kIaIxq//Jtp3zTpAFaTaUYNUkwx+F6v1EYD+AUpyRkdKCYFqACrzgf9C352LfuxyWRWg1/yhT/nRE5IsZWuZtCSK8CPeI0e/hF+jV7AJM4PO7KWCyr390bSiNtEtQM=);strokeColor=none;spacingTop=-3;spacingBottom=-3;spacingLeft=-3;spacingRight=-3;points=[];labelBackgroundColor=none;rounded=0;html=1;whiteSpace=wrap;" parent="137" vertex="1">
          <mxGeometry y="86" width="180" height="30" as="geometry" />
        </mxCell>
        <mxCell id="147" value="&lt;div style=&quot;font-size: 1px&quot;&gt;&lt;font style=&quot;font-size:11.64px;font-family:Helvetica;color:#000000;direction:ltr;letter-spacing:0px;line-height:120%;opacity:1&quot;&gt;Duration&lt;/font&gt;&lt;/div&gt;" style="verticalAlign=middle;align=left;overflow=width;vsdxID=135;fillColor=none;gradientColor=none;shape=stencil(nZBRDoQgDERP03+WHsHFe5iISyOCQdT19kIaIxq//Jtp3zTpAFaTaUYNUkwx+F6v1EYD+AUpyRkdKCYFqACrzgf9C352LfuxyWRWg1/yhT/nRE5IsZWuZtCSK8CPeI0e/hF+jV7AJM4PO7KWCyr390bSiNtEtQM=);strokeColor=none;spacingTop=-3;spacingBottom=-3;spacingLeft=-3;spacingRight=-3;points=[];labelBackgroundColor=none;rounded=0;html=1;whiteSpace=wrap;" parent="137" vertex="1">
          <mxGeometry y="116" width="180" height="30" as="geometry" />
        </mxCell>
        <mxCell id="148" parent="1" vertex="1">
          <mxGeometry x="950" y="1615" as="geometry" />
        </mxCell>
        <UserObject label="" tags="Background" id="149">
          <mxCell style="vsdxID=88;edgeStyle=none;startArrow=ERmandOne;endArrow=ERzeroToMany;startSize=5;endSize=5;strokeColor=#000000;spacingTop=0;spacingBottom=0;spacingLeft=0;spacingRight=0;verticalAlign=middle;html=1;labelBackgroundColor=#ffffff;rounded=0;exitX=0;exitY=0.5;exitDx=0;exitDy=0;exitPerimeter=0;entryX=0.98;entryY=0.423;entryDx=0;entryDy=0;entryPerimeter=0;" parent="1" source="92" target="31" edge="1">
            <mxGeometry relative="1" as="geometry">
              <mxPoint x="94" y="207" as="offset" />
              <Array as="points">
                <mxPoint x="1040" y="1600" />
                <mxPoint x="1040" y="1783" />
              </Array>
            </mxGeometry>
          </mxCell>
        </UserObject>
        <mxCell id="150" parent="1" vertex="1">
          <mxGeometry x="950" y="1275" as="geometry" />
        </mxCell>
        <UserObject label="" tags="Background" id="151">
          <mxCell style="vsdxID=89;edgeStyle=none;startArrow=ERmandOne;endArrow=ERzeroToMany;startSize=5;endSize=5;strokeColor=#000000;spacingTop=0;spacingBottom=0;spacingLeft=0;spacingRight=0;verticalAlign=middle;html=1;labelBackgroundColor=#ffffff;rounded=0;exitX=0;exitY=0.5;exitDx=0;exitDy=0;exitPerimeter=0;" parent="1" source="92" target="150" edge="1">
            <mxGeometry relative="1" as="geometry">
              <mxPoint x="95" y="166" as="offset" />
              <Array as="points">
                <mxPoint x="980" y="1275" />
              </Array>
            </mxGeometry>
          </mxCell>
        </UserObject>
        <mxCell id="152" parent="1" vertex="1">
          <mxGeometry x="979" y="1431" as="geometry" />
        </mxCell>
        <UserObject label="" tags="Background" id="153">
          <mxCell style="vsdxID=90;edgeStyle=none;startArrow=ERmandOne;endArrow=ERzeroToMany;startSize=5;endSize=5;strokeColor=#000000;spacingTop=0;spacingBottom=0;spacingLeft=0;spacingRight=0;verticalAlign=middle;html=1;labelBackgroundColor=#ffffff;rounded=0;exitX=0;exitY=0.5;exitDx=0;exitDy=0;exitPerimeter=0;entryX=1.026;entryY=0.746;entryDx=0;entryDy=0;entryPerimeter=0;" parent="1" source="92" target="105" edge="1">
            <mxGeometry relative="1" as="geometry">
              <mxPoint x="80" y="114" as="offset" />
              <Array as="points">
                <mxPoint x="1070" y="1425" />
                <mxPoint x="1000" y="1425" />
                <mxPoint x="1000" y="1640" />
              </Array>
              <mxPoint x="970" y="1480" as="targetPoint" />
            </mxGeometry>
          </mxCell>
        </UserObject>
        <mxCell id="154" parent="1" vertex="1">
          <mxGeometry x="470" y="1475" as="geometry" />
        </mxCell>
        <UserObject label="" tags="Background" id="155">
          <mxCell style="vsdxID=92;edgeStyle=none;startArrow=ERmandOne;endArrow=ERoneToMany;startSize=5;endSize=5;strokeColor=#000000;spacingTop=0;spacingBottom=0;spacingLeft=0;spacingRight=0;verticalAlign=middle;html=1;labelBackgroundColor=#ffffff;rounded=0;entryX=1;entryY=0.5;entryDx=0;entryDy=0;entryPerimeter=0;" parent="1" source="154" target="83" edge="1">
            <mxGeometry relative="1" as="geometry">
              <mxPoint x="30" y="102" as="offset" />
              <Array as="points">
                <mxPoint x="440" y="1475" />
                <mxPoint x="440" y="1475" />
              </Array>
            </mxGeometry>
          </mxCell>
        </UserObject>
        <UserObject label="" tags="Background" id="156">
          <mxCell style="vsdxID=93;edgeStyle=none;startArrow=ERmandOne;endArrow=ERzeroToMany;startSize=5;endSize=5;strokeColor=#000000;spacingTop=0;spacingBottom=0;spacingLeft=0;spacingRight=0;verticalAlign=middle;html=1;labelBackgroundColor=#ffffff;rounded=0;exitX=1;exitY=0.5;exitDx=0;exitDy=0;exitPerimeter=0;entryX=0;entryY=0.5;entryDx=0;entryDy=0;entryPerimeter=0;" parent="1" source="44" target="107" edge="1">
            <mxGeometry relative="1" as="geometry">
              <mxPoint x="-75" y="121" as="offset" />
              <Array as="points">
                <mxPoint x="680" y="1415" />
                <mxPoint x="720" y="1415" />
                <mxPoint x="720" y="1665" />
              </Array>
            </mxGeometry>
          </mxCell>
        </UserObject>
        <mxCell id="157" parent="1" vertex="1">
          <mxGeometry x="770" y="1705" as="geometry" />
        </mxCell>
        <UserObject label="" tags="Background" id="158">
          <mxCell style="vsdxID=95;edgeStyle=none;startArrow=ERmandOne;endArrow=ERzeroToMany;startSize=5;endSize=5;strokeColor=#000000;spacingTop=0;spacingBottom=0;spacingLeft=0;spacingRight=0;verticalAlign=middle;html=1;labelBackgroundColor=#ffffff;rounded=0;exitX=1;exitY=0.5;exitDx=0;exitDy=0;exitPerimeter=0;" parent="1" source="44" target="39" edge="1">
            <mxGeometry relative="1" as="geometry">
              <mxPoint x="-60" y="246" as="offset" />
              <Array as="points">
                <mxPoint x="680" y="1415" />
                <mxPoint x="680" y="1875" />
              </Array>
            </mxGeometry>
          </mxCell>
        </UserObject>
        <mxCell id="159" parent="1" vertex="1">
          <mxGeometry x="1320" y="1435" as="geometry" />
        </mxCell>
        <UserObject label="" tags="Background" id="160">
          <mxCell style="vsdxID=96;edgeStyle=none;startArrow=ERmandOne;endArrow=ERoneToMany;startSize=5;endSize=5;strokeColor=#000000;spacingTop=0;spacingBottom=0;spacingLeft=0;spacingRight=0;verticalAlign=middle;html=1;labelBackgroundColor=#ffffff;rounded=0;exitX=1;exitY=0.5;exitDx=0;exitDy=0;exitPerimeter=0;" parent="1" source="5" target="159" edge="1">
            <mxGeometry relative="1" as="geometry">
              <mxPoint x="-40" y="176" as="offset" />
              <Array as="points">
                <mxPoint x="1350" y="1595" />
                <mxPoint x="1350" y="1435" />
              </Array>
            </mxGeometry>
          </mxCell>
        </UserObject>
        <mxCell id="161" parent="1" vertex="1">
          <mxGeometry x="770" y="1305" as="geometry" />
        </mxCell>
        <UserObject label="" tags="Background" id="162">
          <mxCell style="vsdxID=102;edgeStyle=none;startArrow=ERmandOne;endArrow=ERzeroToMany;startSize=5;endSize=5;strokeColor=#000000;spacingTop=0;spacingBottom=0;spacingLeft=0;spacingRight=0;verticalAlign=middle;html=1;labelBackgroundColor=#ffffff;rounded=0;exitX=1;exitY=0.5;exitDx=0;exitDy=0;exitPerimeter=0;" parent="1" source="44" target="161" edge="1">
            <mxGeometry relative="1" as="geometry">
              <mxPoint x="-61" y="156" as="offset" />
              <Array as="points">
                <mxPoint x="680" y="1415" />
                <mxPoint x="740" y="1305" />
              </Array>
            </mxGeometry>
          </mxCell>
        </UserObject>
        <UserObject label="" tags="Background" id="163">
          <mxCell style="vsdxID=126;edgeStyle=none;startArrow=ERmandOne;endArrow=ERoneToMany;startSize=5;endSize=5;strokeColor=#000000;spacingTop=0;spacingBottom=0;spacingLeft=0;spacingRight=0;verticalAlign=middle;html=1;labelBackgroundColor=#ffffff;rounded=0;exitX=1;exitY=0.5;exitDx=0;exitDy=0;exitPerimeter=0;entryX=0;entryY=0.5;entryDx=0;entryDy=0;entryPerimeter=0;" parent="1" source="44" target="134" edge="1">
            <mxGeometry relative="1" as="geometry">
              <mxPoint x="-56" y="276" as="offset" />
              <Array as="points">
                <mxPoint x="680" y="1415" />
                <mxPoint x="730" y="1065" />
              </Array>
            </mxGeometry>
          </mxCell>
        </UserObject>
        <mxCell id="164" parent="1" vertex="1">
          <mxGeometry x="940" y="1035" as="geometry" />
        </mxCell>
        <UserObject label="" tags="Background" id="165">
          <mxCell style="vsdxID=127;edgeStyle=none;startArrow=ERmandOne;endArrow=ERzeroToMany;startSize=5;endSize=5;strokeColor=#000000;spacingTop=0;spacingBottom=0;spacingLeft=0;spacingRight=0;verticalAlign=middle;html=1;labelBackgroundColor=#ffffff;rounded=0;exitX=0;exitY=0.5;exitDx=0;exitDy=0;exitPerimeter=0;" parent="1" source="113" target="164" edge="1">
            <mxGeometry relative="1" as="geometry">
              <mxPoint x="64" y="126" as="offset" />
              <Array as="points">
                <mxPoint x="1080" y="1160" />
                <mxPoint x="1080" y="1035" />
                <mxPoint x="970" y="1035" />
              </Array>
            </mxGeometry>
          </mxCell>
        </UserObject>
        <mxCell id="166" parent="1" vertex="1">
          <mxGeometry x="1310" y="1745" as="geometry" />
        </mxCell>
        <UserObject label="" tags="Background" id="167">
          <mxCell style="vsdxID=136;edgeStyle=none;startArrow=ERmandOne;endArrow=ERzeroToMany;startSize=5;endSize=5;strokeColor=#000000;spacingTop=0;spacingBottom=0;spacingLeft=0;spacingRight=0;verticalAlign=middle;html=1;labelBackgroundColor=#ffffff;rounded=0;exitX=1;exitY=0.5;exitDx=0;exitDy=0;exitPerimeter=0;entryX=0.988;entryY=0.395;entryDx=0;entryDy=0;entryPerimeter=0;" parent="1" source="142" target="22" edge="1">
            <mxGeometry relative="1" as="geometry">
              <mxPoint x="-30" y="139" as="offset" />
              <Array as="points">
                <mxPoint x="1340" y="1821" />
                <mxPoint x="1340" y="1742" />
              </Array>
            </mxGeometry>
          </mxCell>
        </UserObject>
      </root>
    </mxGraphModel>
  </diagram>
</mxfile>
